<svg id="Layer_1" data-name="Layer 1" xmlns="http://www.w3.org/2000/svg" viewBox="0 0 300 250"><defs><style>.cls-1{fill:#ef4123;}.cls-2{fill:#fff;}</style></defs><rect class="cls-1" x="16.37715" y="156.20131" width="103.40398" height="24.48156" rx="12.24077"/><path class="cls-2" d="M36.95215,171.8584c0,.22656-.09912.33984-.33985.33984H31.353c-.28369,0-.38282-.07129-.38282-.38281v-9.07227c0-.22656.09913-.35449.32618-.35449h5.34423c.28321,0,.32618.12793.29737.32617l-.09912.85059c-.02832.25488-.18408.29785-.48194.29785h-3.5581v2.56543h3.2749c.269,0,.354.11328.354.31152v.8086c0,.24121-.09912.33984-.33984.33984H32.79883v2.835h3.79931c.24073,0,.354.09961.354.32617Z"/><path class="cls-2" d="M44.61963,171.83008c0,.24023-.08545.36816-.34033.36816H43.25879c-.25537,0-.34033-.12793-.34033-.36816v-3.85645c0-.77929-.21289-1.332-1.07764-1.332a2.80914,2.80914,0,0,0-1.67236.68067v4.52148c0,.24121-.09912.35449-.34034.35449H38.79346a.30637.30637,0,0,1-.34034-.33984v-6.18067a.30961.30961,0,0,1,.3545-.35449H39.729c.19825,0,.32569.05664.34034.26953l.01416.36817a3.70135,3.70135,0,0,1,2.29638-.82227c1.58741,0,2.23975.99219,2.23975,2.53809Z"/><path class="cls-2" d="M52.48438,174.8916c0,.25488-.085.36817-.32569.36817H51.12354c-.22657,0-.354-.09864-.354-.3252v-3.28906a2.81709,2.81709,0,0,1-3.60058.1416,4.41029,4.41029,0,0,1-.12793-5.85449,2.85325,2.85325,0,0,1,2.02734-.7793,2.59474,2.59474,0,0,1,1.84277.751l.02832-.3545c.01416-.15625.09912-.22656.32617-.22656h.87891c.25488,0,.33985.11328.33985.33985ZM50.76953,167.294a2.02968,2.02968,0,0,0-1.43213-.73731c-1.23291,0-1.55908,1.13379-1.55908,2.18262a2.79876,2.79876,0,0,0,.45361,1.70117,1.2925,1.2925,0,0,0,1.063.48242,2.19438,2.19438,0,0,0,1.47461-.667Z"/><path class="cls-2" d="M60.37793,171.80176c0,.29687-.085.39648-.36816.39648h-.90723a.308.308,0,0,1-.34033-.2832l-.01416-.35449a3.57111,3.57111,0,0,1-2.25391.80761c-1.58789,0-2.23975-1.00586-2.23975-2.53711v-4.18164c0-.24121.14161-.32617.36866-.32617h.99218c.22657,0,.3545.07031.3545.32617v3.88379c0,.7793.19824,1.31836,1.04882,1.31836a2.73324,2.73324,0,0,0,1.64454-.68066v-4.52149c0-.24121.12744-.32617.354-.32617h1.00684c.22656,0,.354.07031.354.32617Z"/><path class="cls-2" d="M63.1123,164.416a.89476.89476,0,1,1,.94971-.89356A.90973.90973,0,0,1,63.1123,164.416Zm.86475,7.42773c0,.25488-.11328.35449-.35449.35449h-.99219c-.25537,0-.36865-.09961-.36865-.35449v-6.19434c0-.24121.14209-.32617.36865-.32617h.99219c.227,0,.35449.07031.35449.32617Z"/><path class="cls-2" d="M69.58936,165.19531a.16312.16312,0,0,1,.14209.18457c0,.043-.043.31153-.17041,1.13379-.02833.16992-.11329.21289-.25489.18457a1.6721,1.6721,0,0,0-.38281-.043,1.84587,1.84587,0,0,0-1.36084.68067v4.50781c0,.22656-.09912.35449-.34033.35449H66.1875c-.22705,0-.34033-.11328-.34033-.35449v-6.166c0-.28418.1416-.35449.35449-.35449h.90723c.22656,0,.35449.07031.35449.26953l.01416.45313a2.03986,2.03986,0,0,1,1.71484-.90723A1.358,1.358,0,0,1,69.58936,165.19531Z"/><path class="cls-2" d="M75.68359,170.65332c.15625-.05664.29786-.085.3545.12695l.19873.72364a1.02907,1.02907,0,0,1,.02832.16992c0,.09961-.05713.16992-.22705.24121a6.29729,6.29729,0,0,1-2.38135.45312,3.32157,3.32157,0,0,1-3.54395-3.6289,3.37874,3.37874,0,0,1,3.51563-3.60059,2.78055,2.78055,0,0,1,2.06933.85059,3.49066,3.49066,0,0,1,.83643,2.53711v.21289c0,.34082-.11328.41113-.46777.41113H71.91309a1.96312,1.96312,0,0,0,2.02734,1.84277A4.88382,4.88382,0,0,0,75.68359,170.65332Zm-.83593-2.62305V167.875a1.33057,1.33057,0,0,0-1.31836-1.418,1.65053,1.65053,0,0,0-1.58789,1.57324Z"/><path class="cls-2" d="M87.419,171.83008c0,.24023-.08545.36816-.34034.36816h-1.0205c-.25538,0-.34034-.12793-.34034-.36816v-3.85645c0-.77929-.21289-1.332-1.07763-1.332a2.80917,2.80917,0,0,0-1.67237.68067v4.52148c0,.24121-.09912.35449-.34033.35449H81.59277a.30636.30636,0,0,1-.34033-.33984v-6.18067a.3096.3096,0,0,1,.35449-.35449h.92139c.19824,0,.32617.05664.34033.26953l.01416.36817a3.70138,3.70138,0,0,1,2.29639-.82227c1.5874,0,2.23975.99219,2.23975,2.53809Z"/><path class="cls-2" d="M92.165,172.36816c-2.31055,0-3.37354-1.55957-3.37354-3.6289a3.32581,3.32581,0,0,1,3.459-3.60059c2.31055,0,3.37353,1.53125,3.37353,3.61524A3.33668,3.33668,0,0,1,92.165,172.36816Zm.07129-5.88281c-1.26172,0-1.67285,1.0918-1.67285,2.22559,0,1.16211.35449,2.31054,1.61621,2.31054,1.24707,0,1.67236-1.10546,1.67236-2.26757C93.85205,167.59082,93.4834,166.48535,92.23633,166.48535Z"/><path class="cls-2" d="M105.82861,165.32324c.15577,0,.21241.07031.21241.16992a.44158.44158,0,0,1-.01416.12793l-1.89942,6.23731a.41949.41949,0,0,1-.43945.33984h-.96387a.41842.41842,0,0,1-.43945-.35449l-1.17676-4.04h-.02832l-1.16211,4.06836a.41186.41186,0,0,1-.45361.32617h-.9502a.44369.44369,0,0,1-.43945-.33984l-1.85693-6.23731a.35315.35315,0,0,1-.01417-.11328c0-.12793.09961-.18457.2837-.18457h1.16259c.269,0,.354.09961.39649.26953l1.021,4.4795h.01416l1.31836-4.46582a.35156.35156,0,0,1,.38233-.28321h.79394c.21289,0,.34034.07031.38282.24121l1.29,4.53614h.01416l1.063-4.46582a.36235.36235,0,0,1,.41114-.31153Z"/></svg>