<svg id="Layer_1" data-name="Layer 1" xmlns="http://www.w3.org/2000/svg" viewBox="0 0 300 250"><defs><style>.cls-1{fill:#fff;}.cls-2{fill:#ef4123;}.cls-3{fill:none;}</style></defs><path class="cls-1" d="M141.951,208.564l3.41127-4.294a.444.444,0,0,0,.09553-.26246c0-.14312-.11933-.23866-.31-.23866h-2.12312a.66312.66312,0,0,0-.64407.33385l-3.12553,4.29435h-.04759l-.00561-9.65131a.46135.46135,0,0,0-.51512-.45843l-1.80134.25161a.64554.64554,0,0,0-.57023.6411v2.33256h.00577v13.016a.8106.8106,0,0,0,.81065.81065h1.26085a.81059.81059,0,0,0,.81065-.81065l.00438-4.4618.26245-.23849,3.05362,5.01a.98767.98767,0,0,0,.95413.50095h2.05172c.23867,0,.45318-.07174.45318-.28644a.88186.88186,0,0,0-.16692-.45317Z"/><path class="cls-1" d="M111.89349,206.39309v-.0238a3.41722,3.41722,0,0,0,2.6958-3.5068c0-2.86273-2.14726-4.03189-5.98792-4.03189h-3.48912a.80525.80525,0,0,0-.80522.80522v14.89839a.8052.8052,0,0,0,.80522.805h4.25253c3.38746,0,6.55239-.95429,6.55239-4.81908A4.07137,4.07137,0,0,0,111.89349,206.39309Zm-4.53267-5.07124a.15339.15339,0,0,1,.15347-.15327h1.18228c1.6701,0,2.88687.50094,2.88687,2.05156,0,1.93239-1.24055,2.38574-2.98207,2.38574h-1.08708a.1534.1534,0,0,1-.15347-.15328Zm4.00775,11.3454a6.37331,6.37331,0,0,1-2.24245.31022h-1.61183a.1534.1534,0,0,1-.15347-.15328v-4.89414a.1534.1534,0,0,1,.15347-.15328h1.42093a5.69585,5.69585,0,0,1,2.55269.42921,2.294,2.294,0,0,1,1.26433,2.21864A2.26262,2.26262,0,0,1,111.36857,212.66725Z"/><path class="cls-1" d="M163.06214,206.0246c.00455.00052.10866.01452.14628.01452l.00105-.00018.001.00018a.57441.57441,0,0,0,.56762-.4845c.02116-.12843.03237-.18022.24391-1.5723l.001-.0189.00174-.01207a.39251.39251,0,0,0-.20261-.38582.38556.38556,0,0,0-.07909-.03867.99074.99074,0,0,0-.10358-.02834,2.49374,2.49374,0,0,0-.5055-.05179h-.0021a3.38823,3.38823,0,0,0-2.8188,1.443.03866.03866,0,0,1-.02012.01312.037.037,0,0,1-.0455-.036v-.3048a.8051.8051,0,0,0-.80522-.80505h-1.13522a.80507.80507,0,0,0-.805.80505v9.96013a.80506.80506,0,0,0,.805.805h1.27835a.8051.8051,0,0,0,.80522-.805V207.203a.1591.1591,0,0,1,.038-.10341A3.09573,3.09573,0,0,1,162.68,205.9994a2.91017,2.91017,0,0,1,.38214.0252"/><path class="cls-1" d="M154.83348,204.90215a4.68033,4.68033,0,0,0-3.483-1.43145,5.68582,5.68582,0,0,0-5.91653,6.05946c0,3.72167,2.21883,6.10724,5.96412,6.10724a11.16214,11.16214,0,0,0,2.27394-.22012,8.57856,8.57856,0,0,0,1.54045-.46175.711.711,0,0,0,.49238-.86645l-.27908-1.04091a.443.443,0,0,0-.59-.306l-.15432.05668a8.17626,8.17626,0,0,1-2.80621.5244,3.29134,3.29134,0,0,1-3.38957-2.9259.15513.15513,0,0,1,.15381-.17514h6.79644a.80511.80511,0,0,0,.80506-.80522v-.24461A5.8773,5.8773,0,0,0,154.83348,204.90215Zm-1.54343,3.43506H148.692a.15321.15321,0,0,1-.15206-.17812,2.73647,2.73647,0,0,1,2.64349-2.46975,2.18928,2.18928,0,0,1,2.20185,2.15426c.00822.07646.0133.14069.01628.21836l.00034.16431A.11194.11194,0,0,1,153.29005,208.33721Z"/><path class="cls-1" d="M170.78452,208.86172l-2.147-.88273c-.90653-.35782-1.169-.69185-1.169-1.21659,0-.54872.52295-1.09761,1.503-1.09761a8.562,8.562,0,0,1,2.73249.62213c.38081.1524.81753.04091.81754-.43766,0-.45018,0-1.01612,0-1.15432a.52123.52123,0,0,0-.38122-.59216,7.93057,7.93057,0,0,0-3.31188-.65665c-2.12328,0-4.31814,1.07365-4.31817,3.41164a3.37707,3.37707,0,0,0,2.45724,3.17278l1.88461.71581c.97808.38161,1.43143.73943,1.43142,1.40748,0,.78738-.71565,1.26436-1.76548,1.26436a6.18447,6.18447,0,0,1-1.96091-.40186,9.72306,9.72306,0,0,0-1.58777-.53975.40324.40324,0,0,0-.43679.45439c0,.00769.00022,1.14055.00022,1.14055.004.42733-.0358.6801,1.01276,1.01728a7.83808,7.83808,0,0,0,3.02025.52425c2.41169,0,4.485-1.193,4.48507-3.69789A3.26778,3.26778,0,0,0,170.78452,208.86172Z"/><path class="cls-1" d="M123.36371,203.53871a1.00512,1.00512,0,0,0-.10376-.02817,2.49423,2.49423,0,0,0-.5055-.052,3.38829,3.38829,0,0,0-2.819,1.44318.03777.03777,0,0,1-.06754-.0231V204.574a.80525.80525,0,0,0-.80522-.80522h-1.13312a.80536.80536,0,0,0-.80523.80522v9.96a.80526.80526,0,0,0,.80523.80523h1.27625a.80514.80514,0,0,0,.80522-.80523v-7.31892a.15842.15842,0,0,1,.038-.10341,3.095,3.095,0,0,1,2.25242-1.10023,2.923,2.923,0,0,1,.383.025c.00455.0007.10883.01313.14645.0147a.57474.57474,0,0,0,.56778-.4845c.02118-.1286.0322-.18022.24374-1.5723a.42459.42459,0,0,0-.27873-.45563"/><path class="cls-1" d="M129.41778,203.48264c-3.72167,0-5.82081,2.62421-5.82081,6.05964,0,3.483,1.7891,6.10724,5.67767,6.10724,3.72167,0,5.821-2.64806,5.821-6.08342C135.09563,206.05928,133.30654,203.48264,129.41778,203.48264Zm-.11934,9.90048c-2.12328,0-2.71941-1.9324-2.71941-3.88844,0-1.90875.69167-3.74547,2.81495-3.74547,2.09932,0,2.7196,1.86084,2.7196,3.81689S131.39777,213.38312,129.29844,213.38312Z"/><path class="cls-1" d="M79.14879,206.04154c.00455.00053.10866.01453.14628.01453l.00105-.00018.001.00018a.57442.57442,0,0,0,.56761-.4845c.02116-.12843.03237-.18022.2439-1.5723l.00106-.01889.00174-.01208a.39249.39249,0,0,0-.20261-.38581.38556.38556,0,0,0-.07909-.03867.99074.99074,0,0,0-.10358-.02834,2.49372,2.49372,0,0,0-.50549-.05179H79.2186a3.38824,3.38824,0,0,0-2.81879,1.443.03852.03852,0,0,1-.02012.01312.037.037,0,0,1-.04549-.03605V204.579a.8051.8051,0,0,0-.80522-.805H74.39377a.80506.80506,0,0,0-.80505.805V214.539a.80507.80507,0,0,0,.80505.805h1.27834a.80511.80511,0,0,0,.80522-.805V207.22a.15909.15909,0,0,1,.038-.1034,3.09568,3.09568,0,0,1,2.25136-1.10022,2.91184,2.91184,0,0,1,.38213.02519"/><path class="cls-1" d="M27.78646,200.64873c-1.1688-1.33589-3.02962-1.81322-5.55831-1.81322H18.9777a.80536.80536,0,0,0-.80522.80522V214.538a.80632.80632,0,0,0,.80628.80609h1.46607a.80507.80507,0,0,0,.80522-.805v-4.97882a.07511.07511,0,0,1,.08137-.07628c.303.025,1.17932.063,1.34991.063,3.507,0,6.33782-1.81288,6.33782-5.51056A5.21706,5.21706,0,0,0,27.78646,200.64873Zm-5.12893,6.51263c-.12055,0-.90075-.0168-1.25822-.02222a.15173.15173,0,0,1-.14926-.15328v-5.61134a.15338.15338,0,0,1,.15328-.15345H22.4906c2.05138,0,3.38746.76375,3.38746,2.93446C25.87806,206.20706,24.68545,207.16136,22.65753,207.16136Z"/><path class="cls-1" d="M70.92018,204.9191a4.68028,4.68028,0,0,0-3.483-1.43144,5.68579,5.68579,0,0,0-5.91649,6.05943c0,3.72164,2.21882,6.1072,5.96409,6.1072a11.16212,11.16212,0,0,0,2.27393-.22012,8.57882,8.57882,0,0,0,1.54044-.46174.711.711,0,0,0,.49237-.86645l-.27908-1.04091a.443.443,0,0,0-.59-.306l-.15432.05668a8.1761,8.1761,0,0,1-2.80619.5244,3.29133,3.29133,0,0,1-3.38955-2.92589.15513.15513,0,0,1,.15381-.17514h6.79641a.8051.8051,0,0,0,.805-.80522v-.2446A5.87728,5.87728,0,0,0,70.92018,204.9191Zm-1.54342,3.435H64.77869a.15321.15321,0,0,1-.15206-.17812,2.73645,2.73645,0,0,1,2.64347-2.46973,2.18927,2.18927,0,0,1,2.20185,2.15425c.00821.07646.01329.14068.01627.21836l.00034.16431A.11193.11193,0,0,1,69.37676,208.35414Z"/><path class="cls-1" d="M81.41851,205.75406h1.03111a.15338.15338,0,0,1,.15344.15328v5.16638c0,1.74149.024,2.71958.76358,3.55472a3.70912,3.70912,0,0,0,2.86271,1.00189,7.11632,7.11632,0,0,0,2.13045-.34924c.08154-.02625.26736-.09711.45371-.16973a.64369.64369,0,0,0,.39806-.72368l-.225-1.14484a.31186.31186,0,0,0-.40681-.23481l-.18879.06457a4.36409,4.36409,0,0,1-1.46994.2677,1.23725,1.23725,0,0,1-1.12121-.50094,2.856,2.856,0,0,1-.31005-1.62234v-5.30968a.15338.15338,0,0,1,.15344-.15328h2.35a.64544.64544,0,0,0,.64547-.64547v-.87328a.46149.46149,0,0,0-.4614-.4614H85.64319a.15341.15341,0,0,1-.15344-.15345v-2.76682a.4613.4613,0,0,0-.51512-.45825l-1.80116.211a.64541.64541,0,0,0-.57041.6411v2.373a.15341.15341,0,0,1-.15344.15345H81.6024a.64556.64556,0,0,0-.64547.64547v.87311a.46156.46156,0,0,0,.46158.46157"/><path class="cls-1" d="M100.55661,203.77391H98.62422a.65755.65755,0,0,0-.71563.54854l-2.39747,7.42106a.115.115,0,0,1-.21836.00123l-2.53726-7.56542a.58338.58338,0,0,0-.59648-.40541h-2.29a.33253.33253,0,0,0-.35782.334.558.558,0,0,0,.04777.19072l4.28557,11.04385a.3845.3845,0,0,1-.0042.28783l-.39281.9305a2.37214,2.37214,0,0,1-2.57663,1.64613c-.17217,0-.60977-.04567-.9305-.08206a.41541.41541,0,0,0-.42973.36219l-.19824,1.41342a.49987.49987,0,0,0,.38162.52509,5.43506,5.43506,0,0,0,1.26452.11933c2.86254,0,4.15872-1.00224,5.23234-3.841l4.69974-12.35771a1.0514,1.0514,0,0,0,.04776-.23831.34034.34034,0,0,0-.38178-.334"/><path class="cls-1" d="M36.46746,203.54365a1.00173,1.00173,0,0,0-.10375-.02817,2.49352,2.49352,0,0,0-.5055-.052,3.38825,3.38825,0,0,0-2.819,1.44316.03776.03776,0,0,1-.06754-.02309V204.579a.80525.80525,0,0,0-.80522-.80522H31.03337a.80535.80535,0,0,0-.80521.80522v9.95991a.80524.80524,0,0,0,.80521.80522h1.27625a.80514.80514,0,0,0,.80521-.80522V207.22a.15844.15844,0,0,1,.038-.10341,3.095,3.095,0,0,1,2.25242-1.10022,2.9228,2.9228,0,0,1,.383.025c.00455.0007.10883.01313.14645.0147a.57474.57474,0,0,0,.56778-.48449c.02117-.12861.03219-.18022.24373-1.5723a.42456.42456,0,0,0-.27873-.45562"/><path class="cls-1" d="M42.5215,203.48757c-3.72164,0-5.82077,2.6242-5.82077,6.05961,0,3.483,1.78909,6.1072,5.67764,6.1072,3.72164,0,5.821-2.648,5.821-6.08338C48.19933,206.0642,46.41024,203.48757,42.5215,203.48757Zm-.11933,9.90043c-2.12327,0-2.7194-1.93238-2.7194-3.88842,0-1.90874.69166-3.74545,2.81493-3.74545,2.09932,0,2.71959,1.86084,2.71959,3.81687S44.50148,213.388,42.40217,213.388Z"/><path class="cls-1" d="M58.89059,204.94271a4.46183,4.46183,0,0,0-3.4592-1.455,4.77654,4.77654,0,0,0-3.27563,1.313.03682.03682,0,0,1-.06423-.02573v-.196a.80527.80527,0,0,0-.80539-.80522l-.34854.00017-.71266-.00017a.8052.8052,0,0,0-.80521.805v15.113a.80509.80509,0,0,0,.805.80522H51.4774a.8051.8051,0,0,0,.805-.80522V214.7133a.07608.07608,0,0,1,.12913-.05459,4.14455,4.14455,0,0,0,2.75737.99541,4.74768,4.74768,0,0,0,3.6737-1.62215,7.07991,7.07991,0,0,0,1.55078-4.628A6.64878,6.64878,0,0,0,58.89059,204.94271Zm-2.36178,7.51485a2.43227,2.43227,0,0,1-1.90859.88274,3.11957,3.11957,0,0,1-2.28879-1.10565.23016.23016,0,0,1-.049-.14453v-5.03288a.22813.22813,0,0,1,.05459-.15169,3.62465,3.62465,0,0,1,2.40236-1.1039,2.27469,2.27469,0,0,1,1.95636.97808,4.80878,4.80878,0,0,1,.692,2.76719A4.54056,4.54056,0,0,1,56.52881,212.45756Z"/><path class="cls-2" d="M182.492,192.94433H175.116a.8038.8038,0,0,0-.8038.8038s0,10.3115,0,10.55949c.0005.0194.00512.05639.00774.07451a.421.421,0,0,0,.42111.359c.32107,0,.429-.28845.6245-.72746.12111-.272.45655-1.00861.6137-1.352a.99948.99948,0,0,1,.99522-.73376H182.492a.8038.8038,0,0,0,.80381-.8038v-7.376A.8038.8038,0,0,0,182.492,192.94433Z"/><path class="cls-1" d="M179.0182,194.51268l-1.72552-.00031a.28465.28465,0,0,0-.285.28509v2.9201l.0003.27178a.289.289,0,0,0,.06874.19334.5779.5779,0,0,0,.71718,0,.28961.28961,0,0,0,.06878-.19334l.00025-.11793v-2.575h1.14055a.784.784,0,0,1,.00918,1.568h-.51226a.28206.28206,0,0,0-.17283.05909.27386.27386,0,0,0-.08929.12169.53972.53972,0,0,0-.03888.19044.58392.58392,0,0,0,.02852.20431.28427.28427,0,0,0,.27248.20854l.50307.00026a1.56806,1.56806,0,0,0,.01475-3.13605Z"/><path class="cls-1" d="M180.94456,197.8479a1.50393,1.50393,0,0,0-.20789-.37795.19584.19584,0,0,0-.11282-.07292.45542.45542,0,0,0-.34422.07781.41357.41357,0,0,0-.21916.32892.20786.20786,0,0,0,.041.112,1.06367,1.06367,0,0,1-.87766,1.66434l-1.36088.00469v-.53633l-.00026-.11787a.28949.28949,0,0,0-.06878-.19334.5779.5779,0,0,0-.71718,0,.289.289,0,0,0-.06873.19334l-.00031.11787v1.028a.28436.28436,0,0,0,.28361.28355h1.93253a1.84341,1.84341,0,0,0,1.84344-1.84339A1.73819,1.73819,0,0,0,180.94456,197.8479Z"/><rect class="cls-3" x="183.27981" y="180.58208" width="18.2505" height="18.2505"/><rect class="cls-3" x="183.27714" y="215.6607" width="18.2505" height="18.2505"/><rect class="cls-3" x="-0.07949" y="180.58208" width="18.2505" height="18.2505"/><rect class="cls-3" x="-0.0922" y="215.67075" width="18.2505" height="18.2505"/></svg>