<svg id="Layer_1" data-name="Layer 1" xmlns="http://www.w3.org/2000/svg" viewBox="0 0 300 250"><defs><style>.cls-1{fill:#fff;}</style></defs><path class="cls-1" d="M62.51953,171.60156c-5.72949,0-9.0293-4.16992-9.0293-10.67968,0-6.44922,3.59961-10.82911,9.23926-10.82911,5.93994,0,9.02979,4.5,9.02979,10.64942C71.75928,167.52246,67.88965,171.60156,62.51953,171.60156Zm.12012-18.23926c-3,0-5.00977,2.79-5.00977,7.46973,0,4.98047,1.83008,7.5,5.00977,7.5,2.96973,0,4.98-2.61035,4.98-7.5C67.61963,155.793,65.84961,153.3623,62.63965,153.3623Z"/><path class="cls-1" d="M87.80908,170.40234c0,.62989-.18017.83985-.77978.83985H85.10938a.65189.65189,0,0,1-.72022-.60059l-.02978-.75a7.55394,7.55394,0,0,1-4.77,1.71c-3.35987,0-4.73975-2.12988-4.73975-5.36914v-8.84961c0-.51074.2998-.69043.78027-.69043h2.09961c.48,0,.75.15039.75.69043v8.21973c0,1.64941.41992,2.78906,2.21973,2.78906a5.78427,5.78427,0,0,0,3.48-1.43945v-9.56934c0-.51074.27-.69043.75-.69043h2.12988c.48,0,.75.15039.75.69043Z"/><path class="cls-1" d="M99.59961,168.3623a1.53389,1.53389,0,0,1,.33008-.06054c.17969,0,.2998.08984.35986.36035l.29981,1.5a.61338.61338,0,0,1-.41993.75,9.05939,9.05939,0,0,1-3.35986.68945A4.66408,4.66408,0,0,1,93.21,170.3418c-.93017-1.04981-.96-2.2793-.96-4.46973v-6.68945H90.83984c-.56982,0-.66015-.12012-.66015-.75V157.293c0-.36035.18017-.60059.54-.60059H92.25v-3.26953c0-.50976.27-.66015.75-.71973l2.30957-.2705c.39014,0,.57031.21.57031.66015v3.59961h3.38965c.35986,0,.56983.12012.56983.50977v1.41015a.54378.54378,0,0,1-.59961.57032H95.87988v6.86914a3.58685,3.58685,0,0,0,.38965,2.04,1.55386,1.55386,0,0,0,1.41016.62988A5.92272,5.92272,0,0,0,99.59961,168.3623Z"/><path class="cls-1" d="M115.91943,170.252c0,4.85938-2.07031,7.55957-7.10986,7.55957a11.12874,11.12874,0,0,1-4.43994-.92968c-.33008-.15039-.48-.33008-.48-.60059a1.50139,1.50139,0,0,1,.08984-.38965l.42041-1.31933c.11963-.33008.23975-.54.44971-.54a1.268,1.268,0,0,1,.45019.11914,9.25623,9.25623,0,0,0,3.35987.78027c2.99951,0,3.62988-1.58984,3.62988-3.98926v-1.20019a6.25146,6.25146,0,0,1-3.8999,1.52929,5.849,5.849,0,0,1-4.41016-1.71,7.67022,7.67022,0,0,1-1.88965-5.42968c0-4.01954,2.33985-7.79883,6.68946-7.79883a5.50941,5.50941,0,0,1,2.16015.47949,3.75256,3.75256,0,0,1,1.52979,1.2002l.06006-.78028c.03027-.38965.24023-.54.68994-.54h1.98c.54,0,.72021.21.72021.71973Zm-3.62988-9.54a3.84612,3.84612,0,0,0-2.91016-1.46972,3.17875,3.17875,0,0,0-2.21972.87011,5.40083,5.40083,0,0,0-1.29,3.80958,5.0033,5.0033,0,0,0,1.19971,3.60058,2.99353,2.99353,0,0,0,2.13037.80957,4.37662,4.37662,0,0,0,3.08984-1.43945Z"/><path class="cls-1" d="M127.61914,156.42285a.34307.34307,0,0,1,.29981.38965c0,.08984-.08985.66016-.35987,2.40039-.06006.35938-.23974.44922-.54.38965a3.49624,3.49624,0,0,0-.81006-.08984,3.904,3.904,0,0,0-2.87988,1.43945v9.54c0,.47949-.21.75-.71972.75h-2.18995c-.48,0-.71972-.24024-.71972-.75V157.44238c0-.59961.2998-.75.74951-.75h1.91992c.48047,0,.75.15039.75.57032l.03027.96a4.31618,4.31618,0,0,1,3.62989-1.91993A2.84621,2.84621,0,0,1,127.61914,156.42285Z"/><path class="cls-1" d="M135.86865,171.60156c-4.88965,0-7.13965-3.2998-7.13965-7.67968,0-4.31934,2.63965-7.61915,7.31983-7.61915,4.88965,0,7.13965,3.23926,7.13965,7.64942C143.18848,168.27246,140.54834,171.60156,135.86865,171.60156Zm.1499-12.44922c-2.66992,0-3.53955,2.30957-3.53955,4.71,0,2.46.74952,4.88965,3.41944,4.88965,2.64013,0,3.54-2.33984,3.54-4.7998S138.65869,159.15234,136.01855,159.15234Z"/><path class="cls-1" d="M164.78809,156.69238c.33007,0,.45019.15039.45019.36035a.91562.91562,0,0,1-.03027.26954l-4.01953,13.19921a.88637.88637,0,0,1-.92969.72071h-2.04a.885.885,0,0,1-.92969-.75l-2.49023-8.54981h-.05957l-2.46,8.60938a.87019.87019,0,0,1-.96.69043h-2.01026a.938.938,0,0,1-.93017-.72071l-3.92969-13.19921a.73852.73852,0,0,1-.03027-.24024c0-.26953.21-.38965.60009-.38965h2.46c.56983,0,.75.21.83985.57032l2.16015,9.47949h.02979l2.79-9.44922a.74626.74626,0,0,1,.81055-.60059h1.67968c.4502,0,.71973.15039.80957.50977l2.73047,9.59961h.0293l2.25-9.44922a.76683.76683,0,0,1,.87012-.66016Z"/><path class="cls-1" d="M180.56836,170.46191c0,.50977-.17969.78028-.71973.78028h-2.16015c-.54,0-.71973-.27051-.71973-.78028v-8.15918c0-1.65039-.4502-2.82031-2.28027-2.82031a5.95072,5.95072,0,0,0-3.54,1.43946v9.57031c0,.50976-.21.75-.71973.75h-2.18945a.6488.6488,0,0,1-.71973-.72071v-13.0791a.65475.65475,0,0,1,.749-.75h1.9502c.41992,0,.69043.12012.71973.57032l.03027.77929a7.837,7.837,0,0,1,4.86035-1.73926c3.35938,0,4.73926,2.09961,4.73926,5.36915Z"/><path class="cls-1" d="M204.6875,157.41211l-5.90918,15.54c-1.35059,3.56933-3.03027,4.8291-6.62988,4.8291a6.80628,6.80628,0,0,1-1.58985-.14941c-.50976-.08985-.48047-.39063-.41992-.78028l.21-1.55957c.05957-.39062.21-.54.54-.54.38965,0,.83985.08985,1.2002.08985a2.98213,2.98213,0,0,0,3.23925-2.07032l.57032-1.3496-5.46-14.06934a.7.7,0,0,1-.05957-.24024.41758.41758,0,0,1,.44921-.41992H193.708a.734.734,0,0,1,.75.50977l3.33008,9.92969,3.15039-9.749a.82617.82617,0,0,1,.89941-.69043h2.42969a.42778.42778,0,0,1,.48047.41992A1.30136,1.30136,0,0,1,204.6875,157.41211Z"/><path class="cls-1" d="M212.63867,171.60156c-4.88965,0-7.13965-3.2998-7.13965-7.67968,0-4.31934,2.63965-7.61915,7.31934-7.61915,4.88965,0,7.13965,3.23926,7.13965,7.64942C219.958,168.27246,217.31836,171.60156,212.63867,171.60156Zm.14942-12.44922c-2.66993,0-3.53907,2.30957-3.53907,4.71,0,2.46.749,4.88965,3.41895,4.88965,2.64062,0,3.54-2.33984,3.54-4.7998S215.42871,159.15234,212.78809,159.15234Z"/><path class="cls-1" d="M235.79785,170.40234c0,.62989-.18066.83985-.78027.83985h-1.91992a.65172.65172,0,0,1-.71973-.60059l-.03027-.75a7.55262,7.55262,0,0,1-4.76954,1.71c-3.36035,0-4.74023-2.12988-4.74023-5.36914v-8.84961c0-.51074.29981-.69043.78027-.69043h2.09961c.48047,0,.75.15039.75.69043v8.21973c0,1.64941.41993,2.78906,2.21973,2.78906a5.78562,5.78562,0,0,0,3.48047-1.43945v-9.56934c0-.51074.26953-.69043.75-.69043h2.12988c.47949,0,.75.15039.75.69043Z"/><path class="cls-1" d="M247.46777,156.42285a.34307.34307,0,0,1,.29981.38965c0,.08984-.08985.66016-.35938,2.40039-.06054.35938-.24023.44922-.54.38965a3.50047,3.50047,0,0,0-.81054-.08984,3.904,3.904,0,0,0-2.87989,1.43945v9.54c0,.47949-.21.75-.71972.75h-2.18946c-.48046,0-.71972-.24024-.71972-.75V157.44238c0-.59961.2998-.75.749-.75h1.91992c.48047,0,.75.15039.75.57032l.03028.96a4.31679,4.31679,0,0,1,3.62988-1.91993A2.84179,2.84179,0,0,1,247.46777,156.42285Z"/><path class="cls-1" d="M121.30371,206.6416c0,.4502-.09033.60059-.48.60059h-2.64014c-.41992,0-.50976-.12012-.50976-.60059v-8.33887c0-1.62011-.4502-2.82031-2.25-2.82031a6.114,6.114,0,0,0-3.59961,1.43946v9.71972c0,.4502-.12012.60059-.57031.60059h-2.57959c-.36036,0-.48-.15039-.48-.54v-19.8291c0-.54.23974-.69043.65966-.75,2.18995-.29981,2.33985-.29981,2.46-.29981.33008,0,.51026.14942.51026.56934v7.53027a7.801,7.801,0,0,1,4.73974-1.62012c3.35987,0,4.73975,2.12989,4.73975,5.36915Z"/><path class="cls-1" d="M131.35352,207.60156c-4.88965,0-7.13965-3.2998-7.13965-7.67968,0-4.31934,2.63965-7.61915,7.31982-7.61915,4.88965,0,7.13965,3.23926,7.13965,7.64942C138.67334,204.27246,136.0332,207.60156,131.35352,207.60156Zm.1499-12.44922c-2.66992,0-3.53955,2.30957-3.53955,4.71,0,2.46.75,4.88965,3.41943,4.88965,2.64014,0,3.54-2.33984,3.54-4.7998S134.14355,195.15234,131.50342,195.15234Z"/><path class="cls-1" d="M163.30273,206.49219c0,.54-.21.75-.71972.75h-2.10059c-.54,0-.7793-.21-.7793-.75v-8.21973c0-1.62012-.41992-2.84961-2.25-2.84961a5.87022,5.87022,0,0,0-3.38964,1.34961c.05957.26953.11914,4.29.11914,4.71v5.00977c0,.54-.21.75-.71973.75H151.4834c-.54053,0-.78028-.21-.78028-.75v-8.21973c0-1.58984-.33007-2.84961-2.16015-2.84961a5.37251,5.37251,0,0,0-3.33008,1.499v9.57031c0,.54-.23975.75-.74951.75h-2.1001c-.54,0-.77978-.21-.77978-.75V193.38281a.62724.62724,0,0,1,.71972-.69043h1.94971c.45019,0,.72021.15039.75.57032l.03027.75a6.83,6.83,0,0,1,4.40967-1.71,4.2394,4.2394,0,0,1,3.81006,1.9502,7.55129,7.55129,0,0,1,5.12988-1.9502,4.55147,4.55147,0,0,1,4.2002,2.25,9.33458,9.33458,0,0,1,.71972,4.34961Z"/><path class="cls-1" d="M178.00293,203.97168c.33008-.11914.62988-.17969.75.27051l.41992,1.53027a2.27235,2.27235,0,0,1,.05957.35938c0,.21-.12012.36035-.47949.50976a13.31653,13.31653,0,0,1-5.04.96c-4.71,0-7.5-3-7.5-7.67968,0-4.499,2.96973-7.61915,7.43945-7.61915a5.88348,5.88348,0,0,1,4.37989,1.79981,7.39073,7.39073,0,0,1,1.7705,5.37012v.44922c0,.7207-.24023.87011-.99023.87011h-8.79a4.15521,4.15521,0,0,0,4.29,3.90039A10.35215,10.35215,0,0,0,178.00293,203.97168Zm-1.77051-5.5498v-.32911a2.81357,2.81357,0,0,0-2.79-3,3.49228,3.49228,0,0,0-3.35937,3.32911Z"/><path class="cls-1" d="M190.7832,195.45215l-2.19043,2.31055a3.75766,3.75766,0,0,0-1.29,2.81933c0,.33008-.02929.66016,0,.99024v.14941c0,.33008-.08984.4502-.35937.4502h-2.00977a.46613.46613,0,0,1-.54-.4502,8.15953,8.15953,0,0,1-.21-1.76953,4.731,4.731,0,0,1,1.5293-3.50977l2.12988-2.18945a4.45722,4.45722,0,0,0,1.46973-2.73047c0-1.91992-1.43945-2.5498-2.90918-2.5498a7.319,7.319,0,0,0-3.12012.87011.676.676,0,0,1-.2998.08985.34333.34333,0,0,1-.33008-.26953l-.59961-1.62012a.87245.87245,0,0,1-.06055-.27051.452.452,0,0,1,.27051-.41992,10.20443,10.20443,0,0,1,4.85938-1.25977c3,0,5.63965,1.88965,5.63965,5.06934A6.36951,6.36951,0,0,1,190.7832,195.45215Zm-4.7998,12.14941a1.92347,1.92347,0,1,1,0-3.83984,1.91394,1.91394,0,0,1,2.00976,1.91992A1.96749,1.96749,0,0,1,185.9834,207.60156Z"/></svg>