<svg id="Layer_1" data-name="Layer 1" xmlns="http://www.w3.org/2000/svg" viewBox="0 0 300 250"><defs><style>.cls-1{fill:#fff;}</style></defs><path class="cls-1" d="M73.80225,158.94069c0,.52832-.2168.64844-.57618.64844H71.61768a1.09236,1.09236,0,0,1-.91211-.50391l-7.82422-10.70508h-.04883v10.585c0,.456-.21582.624-.624.624H60.481c-.45606,0-.64844-.12012-.64844-.59961V143.62819c0-.50488.21582-.64844.64844-.64844h1.55957a.86893.86893,0,0,1,.8164.45606l7.89649,10.84863h.04785V143.60378c0-.45606.2168-.624.624-.624h1.80078c.50391,0,.57618.26368.57618.64844Z"/><path class="cls-1" d="M85.77686,156.97292c.26367-.09571.5039-.14356.5996.21582l.33594,1.22461a1.74227,1.74227,0,0,1,.04883.28808c0,.168-.09668.28809-.38477.40723a10.64681,10.64681,0,0,1-4.03222.76855c-3.76856,0-6-2.40039-6-6.14453a5.72036,5.72036,0,0,1,5.95215-6.09668,4.706,4.706,0,0,1,3.5039,1.44043,5.9114,5.9114,0,0,1,1.417,4.2959v.36035c0,.57618-.19239.69629-.793.69629H79.39209a3.325,3.325,0,0,0,3.43262,3.12012A8.27869,8.27869,0,0,0,85.77686,156.97292Zm-1.416-4.44043v-.26367a2.25194,2.25194,0,0,0-2.23242-2.40039,2.79441,2.79441,0,0,0-2.68848,2.66406Z"/><path class="cls-1" d="M98.13721,156.97292c.26367-.09571.5039-.14356.59961.21582l.33593,1.22461a1.74227,1.74227,0,0,1,.04883.28808c0,.168-.09668.28809-.38476.40723a10.64686,10.64686,0,0,1-4.03223.76855c-3.76855,0-6-2.40039-6-6.14453a5.72036,5.72036,0,0,1,5.95215-6.09668,4.706,4.706,0,0,1,3.5039,1.44043,5.9114,5.9114,0,0,1,1.417,4.2959v.36035c0,.57618-.19239.69629-.793.69629H91.75244a3.325,3.325,0,0,0,3.43262,3.12012A8.27869,8.27869,0,0,0,98.13721,156.97292Zm-1.416-4.44043v-.26367a2.25194,2.25194,0,0,0-2.23242-2.40039,2.79442,2.79442,0,0,0-2.68848,2.66406Z"/><path class="cls-1" d="M112.106,158.98952a.52627.52627,0,0,1-.52832.59961h-1.56055c-.38379,0-.55176-.19238-.57617-.48047l-.04785-.64746a4.68528,4.68528,0,0,1-3.26368,1.416c-3.48046,0-5.06445-2.76074-5.06445-5.97656,0-3.36035,1.87207-6.28808,5.25586-6.28808a4.15,4.15,0,0,1,2.88086,1.12793v-5.40039c0-.43262.12012-.60059.50391-.64844l2.01562-.26367c.28809,0,.38477.12011.38477.47949Zm-2.9043-7.87305a3.02705,3.02705,0,0,0-2.30469-1.17578c-1.94433,0-2.80859,1.82422-2.80859,3.792s.7207,3.792,2.665,3.792a3.58114,3.58114,0,0,0,2.44824-1.2002Z"/><path class="cls-1" d="M127.36865,157.28542a1.22869,1.22869,0,0,1,.26465-.04883c.14356,0,.24024.07227.28809.28809l.23925,1.20019a.49017.49017,0,0,1-.33593.60059,7.252,7.252,0,0,1-2.6875.55175,3.7366,3.7366,0,0,1-2.88086-1.00781c-.74414-.84082-.76758-1.82422-.76758-3.57617v-5.35254h-1.12793c-.456,0-.52832-.09668-.52832-.60058V148.428c0-.28809.14355-.4795.43164-.4795h1.22461v-2.61621c0-.4082.21582-.52832.59961-.57617l1.84863-.21582c.31153,0,.45606.168.45606.52734v2.88086H127.105c.28809,0,.45606.09571.45606.40723v1.12891a.4355.4355,0,0,1-.48047.456h-2.6875v5.49609a2.87367,2.87367,0,0,0,.31152,1.63184,1.24249,1.24249,0,0,0,1.12793.50391A4.74009,4.74009,0,0,0,127.36865,157.28542Z"/><path class="cls-1" d="M135.07275,159.87721c-3.91211,0-5.71191-2.64062-5.71191-6.14453,0-3.456,2.1123-6.09668,5.85645-6.09668,3.9121,0,5.71191,2.59278,5.71191,6.1211C140.9292,157.21315,138.81689,159.87721,135.07275,159.87721Zm.12012-9.96093c-2.13574,0-2.832,1.84863-2.832,3.76855,0,1.96778.59961,3.91211,2.73633,3.91211,2.1123,0,2.832-1.87207,2.832-3.83984C137.9292,151.78835,137.30518,149.91628,135.19287,149.91628Z"/><path class="cls-1" d="M159.40967,158.91725c0,.50391-.14453.67188-.624.67188h-1.53613a.52086.52086,0,0,1-.57617-.48047l-.02441-.59961a6.04614,6.04614,0,0,1-3.81641,1.36816c-2.68848,0-3.792-1.7041-3.792-4.29687v-7.08008c0-.4082.24023-.55176.624-.55176h1.67969c.38476,0,.60058.12012.60058.55176v6.57617c0,1.32032.33594,2.23243,1.77637,2.23243a4.62615,4.62615,0,0,0,2.78418-1.15235v-7.65625c0-.4082.21582-.55176.59961-.55176h1.7041c.38379,0,.60059.12012.60059.55176Z"/><path class="cls-1" d="M171.88916,158.26882a4.78009,4.78009,0,0,1-3.69629,1.63281,4.09933,4.09933,0,0,1-2.9043-1.12891v5.377c0,.47949-.21582.624-.624.624h-1.68066c-.38379,0-.57618-.21582-.57618-.624V148.50026c0-.4082.19239-.55176.57618-.55176h1.44043c.4082,0,.624.09571.64843.45606l.02344.64746a4.75662,4.75662,0,0,1,3.36035-1.3916,4.48853,4.48853,0,0,1,3.48047,1.46386,6.68771,6.68771,0,0,1,1.51172,4.48829A7.12427,7.12427,0,0,1,171.88916,158.26882Zm-2.16016-7.29688a2.28933,2.28933,0,0,0-1.96875-.9834,3.61519,3.61519,0,0,0-2.47168,1.17578v5.23243a3.122,3.122,0,0,0,2.35157,1.17578,2.44731,2.44731,0,0,0,1.9209-.8877,4.57037,4.57037,0,0,0,.86425-2.92773A4.84621,4.84621,0,0,0,169.729,150.97194Z"/><path class="cls-1" d="M178.897,159.87721a9.58121,9.58121,0,0,1-3.69629-.83984.41239.41239,0,0,1-.28808-.38476.69385.69385,0,0,1,.04785-.21583l.38379-1.22363c.07226-.24023.19238-.33594.36035-.33594a.47406.47406,0,0,1,.23926.04786,8.82215,8.82215,0,0,0,3.02441.74414c1.05664,0,1.77637-.48047,1.77637-1.27246,0-.67188-.45606-1.03223-1.44043-1.416l-1.89551-.71973a3.39868,3.39868,0,0,1-2.47265-3.19238c0-2.35254,2.208-3.43262,4.34472-3.43262a8.39582,8.39582,0,0,1,3.48047.71973c.19141.09668.28809.19238.28809.33691a1.03962,1.03962,0,0,1-.04883.23926l-.40723,1.29688a.33405.33405,0,0,1-.33594.26367.8675.8675,0,0,1-.24023-.04785,7.89012,7.89012,0,0,0-2.59277-.57617c-1.00782,0-1.51172.55175-1.51172,1.10351,0,.52832.26367.86426,1.17578,1.22461l2.16016.8877a3.28822,3.28822,0,0,1,2.28027,3.07226C183.52881,158.677,181.34521,159.87721,178.897,159.87721Z"/><path class="cls-1" d="M187.273,146.41237a1.51667,1.51667,0,1,1,0-3.02441,1.52568,1.52568,0,0,1,1.60742,1.51172A1.55515,1.55515,0,0,1,187.273,146.41237Zm1.46387,12.57715c0,.43164-.19239.59961-.59961.59961h-1.68067c-.43164,0-.624-.168-.624-.59961V148.50026c0-.4082.24023-.55176.624-.55176h1.68067c.38379,0,.59961.12012.59961.55176Z"/><path class="cls-1" d="M200.13721,159.13307a.41673.41673,0,0,1-.45606.45606h-8.13672a.50818.50818,0,0,1-.57617-.57617v-.59961a1.164,1.164,0,0,1,.24024-.81641l5.18457-7.63281v-.02344h-4.44043c-.45606,0-.55274-.12012-.55274-.624v-.86426a.44244.44244,0,0,1,.45606-.50391h7.585c.45605,0,.55176.23926.55176.50391v.67187a1.22914,1.22914,0,0,1-.24024.792l-5.28027,7.63281v.04785h5.18457c.28808,0,.48047.0957.48047.4082Z"/><path class="cls-1" d="M210.96045,156.97292c.26367-.09571.50391-.14356.59961.21582l.33594,1.22461a1.74313,1.74313,0,0,1,.04882.28808c0,.168-.09668.28809-.38476.40723a10.64686,10.64686,0,0,1-4.03223.76855c-3.76855,0-6-2.40039-6-6.14453A5.72036,5.72036,0,0,1,207.48,147.636a4.706,4.706,0,0,1,3.50391,1.44043,5.91144,5.91144,0,0,1,1.417,4.2959v.36035c0,.57618-.19238.69629-.793.69629h-7.03223a3.325,3.325,0,0,0,3.43262,3.12012A8.27865,8.27865,0,0,0,210.96045,156.97292Zm-1.416-4.44043v-.26367a2.25194,2.25194,0,0,0-2.23242-2.40039,2.7944,2.7944,0,0,0-2.68847,2.66406Z"/><path class="cls-1" d="M225.40771,159.87721c-3.9121,0-5.71191-2.64062-5.71191-6.14453,0-3.456,2.11231-6.09668,5.85645-6.09668,3.91211,0,5.71191,2.59278,5.71191,6.1211C231.26416,157.21315,229.15186,159.87721,225.40771,159.87721Zm.12012-9.96093c-2.13574,0-2.832,1.84863-2.832,3.76855,0,1.96778.59961,3.91211,2.73633,3.91211,2.1123,0,2.832-1.87207,2.832-3.83984C228.26416,151.78835,227.64014,149.91628,225.52783,149.91628Z"/><path class="cls-1" d="M239.92725,147.73171a.276.276,0,0,1,.24023.3125c0,.07226-.07227.52832-.28809,1.91992-.04785.28808-.19238.36035-.43261.3125a2.82283,2.82283,0,0,0-.64746-.07227,3.12126,3.12126,0,0,0-2.30469,1.15235v7.63281c0,.38379-.168.59961-.57617.59961h-1.752c-.38379,0-.57617-.19238-.57617-.59961V148.54811c0-.47949.24024-.59961.60059-.59961h1.53613c.38379,0,.59961.12012.59961.45606l.02441.76758a3.45449,3.45449,0,0,1,2.9043-1.53614A2.2962,2.2962,0,0,1,239.92725,147.73171Z"/><path class="cls-1" d="M107.80908,182.98952a.52626.52626,0,0,1-.52832.59961h-1.56055c-.38378,0-.55175-.19238-.57617-.48047l-.04785-.64746a4.68524,4.68524,0,0,1-3.26367,1.416c-3.48047,0-5.06445-2.76074-5.06445-5.97656,0-3.36035,1.87207-6.28808,5.25586-6.28808a4.15,4.15,0,0,1,2.88086,1.12793v-5.40039c0-.43262.12011-.60059.5039-.64844l2.01563-.26367c.28808,0,.38476.12011.38476.47949Zm-2.90429-7.87305a3.02705,3.02705,0,0,0-2.30469-1.17578c-1.94434,0-2.8086,1.82422-2.8086,3.792s.72071,3.792,2.665,3.792a3.58115,3.58115,0,0,0,2.44825-1.2002Z"/><path class="cls-1" d="M115.84814,183.87721c-3.9121,0-5.71191-2.64062-5.71191-6.14453,0-3.456,2.11231-6.09668,5.85645-6.09668,3.91211,0,5.71191,2.59278,5.71191,6.1211C121.70459,181.21315,119.59229,183.87721,115.84814,183.87721Zm.12012-9.96093c-2.13574,0-2.832,1.84863-2.832,3.76855,0,1.96778.59961,3.91211,2.73633,3.91211,2.1123,0,2.832-1.87207,2.832-3.83984C118.70459,175.78835,118.08057,173.91628,115.96826,173.91628Z"/><path class="cls-1" d="M138.98486,171.9485c.26465,0,.36035.12012.36035.28809a.75787.75787,0,0,1-.02343.21582L136.105,183.013a.709.709,0,0,1-.74414.57617H133.729a.7079.7079,0,0,1-.74414-.59961l-1.99218-6.84082h-.04786l-1.96875,6.88867a.69532.69532,0,0,1-.76757.55176h-1.6084a.75149.75149,0,0,1-.74414-.57617l-3.14356-10.56055a.59035.59035,0,0,1-.02441-.19238c0-.21582.168-.31153.48047-.31153h1.96777c.45606,0,.59961.168.67188.45606l1.72851,7.584h.02344l2.23242-7.56054a.59667.59667,0,0,1,.64844-.4795h1.34375c.36035,0,.57617.12012.64844.40723l2.18359,7.68066h.02441l1.79981-7.56054a.61357.61357,0,0,1,.69629-.52735Z"/><path class="cls-1" d="M151.60889,182.96511c0,.4082-.14453.624-.57618.624H149.3042c-.43164,0-.5752-.21582-.5752-.624v-6.52833c0-1.32031-.36035-2.25683-1.82421-2.25683a4.76309,4.76309,0,0,0-2.833,1.15234v7.65723c0,.40723-.168.59961-.5752.59961h-1.75293a.51962.51962,0,0,1-.57617-.57617V172.54811a.5239.5239,0,0,1,.60059-.59961h1.55957c.33691,0,.55273.09571.57617.45606l.02441.624a6.26327,6.26327,0,0,1,3.88867-1.39258c2.6875,0,3.792,1.68067,3.792,4.29688Z"/><path class="cls-1" d="M157.75244,183.87721a9.58117,9.58117,0,0,1-3.69629-.83984.41239.41239,0,0,1-.28808-.38476.69356.69356,0,0,1,.04785-.21583l.38379-1.22363c.07226-.24023.19238-.33594.36035-.33594a.47406.47406,0,0,1,.23926.04786,8.82215,8.82215,0,0,0,3.02441.74414c1.05664,0,1.77637-.48047,1.77637-1.27246,0-.67188-.45606-1.03223-1.44043-1.416l-1.89551-.71973a3.39869,3.39869,0,0,1-2.47266-3.19238c0-2.35254,2.208-3.43262,4.34473-3.43262a8.39588,8.39588,0,0,1,3.48047.71973c.19141.09668.28809.19238.28809.33691a1.03962,1.03962,0,0,1-.04883.23926l-.40723,1.29688a.33405.33405,0,0,1-.33594.26367.8675.8675,0,0,1-.24023-.04785,7.89012,7.89012,0,0,0-2.59277-.57617c-1.00782,0-1.51172.55175-1.51172,1.10351,0,.52832.26367.86426,1.17578,1.22461l2.16015.8877a3.28823,3.28823,0,0,1,2.28028,3.07226C162.38428,182.677,160.20068,183.87721,157.75244,183.87721Z"/><path class="cls-1" d="M166.12842,170.41237a1.51667,1.51667,0,1,1,0-3.02441,1.52568,1.52568,0,0,1,1.60742,1.51172A1.55515,1.55515,0,0,1,166.12842,170.41237Zm1.46387,12.57715c0,.43164-.19239.59961-.59961.59961H165.312c-.43164,0-.624-.168-.624-.59961V172.50026c0-.4082.24023-.55176.624-.55176h1.68067c.38378,0,.59961.12012.59961.55176Z"/><path class="cls-1" d="M178.99268,183.13307a.41673.41673,0,0,1-.45606.45606H170.3999a.50818.50818,0,0,1-.57617-.57617v-.59961a1.164,1.164,0,0,1,.24023-.81641l5.18458-7.63281v-.02344h-4.44043c-.45606,0-.55274-.12012-.55274-.624v-.86426a.44244.44244,0,0,1,.45606-.50391h7.585c.45605,0,.55175.23926.55175.50391v.67187a1.22913,1.22913,0,0,1-.24023.792l-5.28027,7.63281v.04785h5.18457c.28808,0,.48047.0957.48047.4082Z"/><path class="cls-1" d="M189.81689,180.97292c.26368-.09571.50391-.14356.59961.21582l.33594,1.22461a1.74227,1.74227,0,0,1,.04883.28808c0,.168-.09668.28809-.38477.40723a10.64685,10.64685,0,0,1-4.03222.76855c-3.76856,0-6-2.40039-6-6.14453a5.72036,5.72036,0,0,1,5.95215-6.09668,4.706,4.706,0,0,1,3.5039,1.44043,5.91144,5.91144,0,0,1,1.417,4.2959v.36035c0,.57618-.19238.69629-.793.69629h-7.03223a3.325,3.325,0,0,0,3.43262,3.12012A8.27859,8.27859,0,0,0,189.81689,180.97292Zm-1.416-4.44043v-.26367a2.25194,2.25194,0,0,0-2.23242-2.40039,2.79441,2.79441,0,0,0-2.68848,2.66406Z"/><path class="cls-1" d="M200.04053,174.15651l-1.752,1.84766a3.009,3.009,0,0,0-1.03222,2.25683c0,.26368-.02344.52735,0,.792v.12011c0,.26367-.07129.35938-.28809.35938h-1.60742a.37289.37289,0,0,1-.43262-.35938,6.56582,6.56582,0,0,1-.168-1.416,3.78358,3.78358,0,0,1,1.22461-2.8086l1.7041-1.75195a3.56843,3.56843,0,0,0,1.17579-2.18457c0-1.53613-1.15235-2.04-2.32813-2.04a5.85369,5.85369,0,0,0-2.49609.69629.53522.53522,0,0,1-.24024.07129.27391.27391,0,0,1-.26367-.21582l-.48047-1.2959a.71589.71589,0,0,1-.04785-.21582.36123.36123,0,0,1,.21582-.33594,8.17041,8.17041,0,0,1,3.88867-1.00879c2.40039,0,4.5127,1.5127,4.5127,4.05664A5.09841,5.09841,0,0,1,200.04053,174.15651Zm-3.83985,9.7207a1.53895,1.53895,0,1,1,0-3.07226,1.53089,1.53089,0,0,1,1.6084,1.53613A1.575,1.575,0,0,1,196.20068,183.87721Z"/></svg>