<svg id="Layer_1" data-name="Layer 1" xmlns="http://www.w3.org/2000/svg" viewBox="0 0 300 250"><defs><style>.cls-1{fill:#fff;}</style></defs><path class="cls-1" d="M51.12305,215.09668c0,.52832-.2168.64844-.57617.64844h-1.6084a1.09236,1.09236,0,0,1-.91211-.50391l-7.82422-10.70508h-.04883v10.585c0,.45606-.21582.624-.624.624H37.80176c-.45606,0-.64844-.12012-.64844-.59961V199.78418c0-.50488.21582-.64844.64844-.64844h1.55957a.86893.86893,0,0,1,.8164.45606l7.89649,10.84863h.04785V199.75977c0-.45606.2168-.624.624-.624h1.80079c.5039,0,.57617.26367.57617.64844Z"/><path class="cls-1" d="M59.37793,216.0332c-3.91211,0-5.71191-2.64062-5.71191-6.14453,0-3.45605,2.1123-6.09668,5.85644-6.09668,3.91211,0,5.71192,2.59278,5.71192,6.1211C65.23438,213.36914,63.12207,216.0332,59.37793,216.0332Zm.12012-9.96093c-2.13575,0-2.832,1.84863-2.832,3.76855,0,1.96777.5996,3.91211,2.73632,3.91211,2.11231,0,2.832-1.87207,2.832-3.83984C62.23438,207.94434,61.61035,206.07227,59.49805,206.07227Z"/><path class="cls-1" d="M82.51367,204.10449c.26465,0,.36035.12012.36035.28809a.75787.75787,0,0,1-.02343.21582L79.63379,215.169a.709.709,0,0,1-.74414.57617H77.25781a.7079.7079,0,0,1-.74414-.59961l-1.99219-6.84082h-.04785l-1.96875,6.88867a.69532.69532,0,0,1-.76758.55176H70.12891a.75149.75149,0,0,1-.74414-.57617L66.24121,204.6084a.59035.59035,0,0,1-.02441-.19238c0-.21582.168-.31153.48047-.31153H68.665c.456,0,.59961.168.67187.45606l1.72852,7.584h.02344l2.23242-7.56055a.59667.59667,0,0,1,.64844-.47949h1.34375c.36035,0,.57617.12012.64843.40723l2.1836,7.68066h.02441l1.79981-7.56054a.61357.61357,0,0,1,.69629-.52735Z"/><path class="cls-1" d="M92.13672,202.56836a1.51667,1.51667,0,1,1,0-3.02441,1.52567,1.52567,0,0,1,1.60742,1.51171A1.55515,1.55515,0,0,1,92.13672,202.56836Zm1.46387,12.57715c0,.43164-.19239.59961-.59961.59961H91.32031c-.43164,0-.624-.168-.624-.59961V204.65625c0-.4082.24023-.55176.624-.55176H93.001c.38379,0,.59961.12012.59961.55176Z"/><path class="cls-1" d="M99.88867,216.0332a9.58117,9.58117,0,0,1-3.69629-.83984.41241.41241,0,0,1-.28808-.38477.6935.6935,0,0,1,.04785-.21582l.38379-1.22363c.07226-.24023.19238-.33594.36035-.33594a.47414.47414,0,0,1,.23926.04785,8.822,8.822,0,0,0,3.02441.74415c1.05664,0,1.77637-.48047,1.77637-1.27247,0-.67187-.45606-1.03222-1.44043-1.416l-1.89551-.71973a3.39869,3.39869,0,0,1-2.47266-3.19238c0-2.35254,2.208-3.43262,4.34473-3.43262a8.39588,8.39588,0,0,1,3.48047.71973c.19141.09668.28809.19238.28809.33691a1.03962,1.03962,0,0,1-.04883.23926l-.40723,1.29688a.33406.33406,0,0,1-.33594.26367.8675.8675,0,0,1-.24023-.04785,7.89014,7.89014,0,0,0-2.59277-.57618c-1.00782,0-1.51172.55176-1.51172,1.10352,0,.52832.26367.86426,1.17578,1.22461l2.16015.88769a3.28823,3.28823,0,0,1,2.28028,3.07227C104.52051,214.833,102.33691,216.0332,99.88867,216.0332Z"/><path class="cls-1" d="M123.74512,215.28906a.4355.4355,0,0,1-.48047.45606H122.1123a1.74036,1.74036,0,0,1-1.96777-1.416h-.04785a4.69337,4.69337,0,0,1-3.48047,1.7041c-3.38379,0-4.9209-2.78418-4.9209-5.90429,0-4.15235,2.49707-6.33692,5.18457-6.33692a3.89227,3.89227,0,0,1,3.07227,1.39258l.04883-.64844a.46355.46355,0,0,1,.5039-.43164h1.67969a.46241.46241,0,0,1,.50391.52735v8.3291a1.1953,1.1953,0,0,0,.14453.69629.38426.38426,0,0,0,.28808.0957h.19141c.28809,0,.43262.0957.43262.4082Zm-3.96094-7.89648a3.067,3.067,0,0,0-2.376-1.22461c-1.46386,0-2.71191,1.24805-2.71191,3.76855,0,2.0166.76758,3.72071,2.54394,3.72071a3.04175,3.04175,0,0,0,2.544-1.63282Z"/><path class="cls-1" d="M141.12109,214.4248a4.78005,4.78005,0,0,1-3.69629,1.63282,4.09935,4.09935,0,0,1-2.90429-1.12891v5.37695c0,.4795-.21582.624-.624.624h-1.68066c-.38379,0-.57617-.21582-.57617-.624V204.65625c0-.4082.19238-.55176.57617-.55176h1.44043c.4082,0,.624.09571.64844.45606l.02343.64746a4.75664,4.75664,0,0,1,3.36036-1.3916,4.48856,4.48856,0,0,1,3.48047,1.46386,6.68774,6.68774,0,0,1,1.51171,4.48828A7.12418,7.12418,0,0,1,141.12109,214.4248Zm-2.16015-7.29687a2.28934,2.28934,0,0,0-1.96875-.9834,3.61515,3.61515,0,0,0-2.47168,1.17578v5.23242a3.12193,3.12193,0,0,0,2.35156,1.17579,2.44729,2.44729,0,0,0,1.9209-.8877,4.57032,4.57032,0,0,0,.86426-2.92773A4.84629,4.84629,0,0,0,138.96094,207.12793Z"/><path class="cls-1" d="M153.74414,213.12891c.26367-.09571.50391-.14356.59961.21582l.33594,1.22461a1.74334,1.74334,0,0,1,.04883.28808c0,.168-.09668.28809-.38477.40723a10.64686,10.64686,0,0,1-4.03223.76855c-3.76855,0-6-2.40039-6-6.14453a5.72036,5.72036,0,0,1,5.95215-6.09668,4.706,4.706,0,0,1,3.50391,1.44043,5.91142,5.91142,0,0,1,1.417,4.2959v.36035c0,.57617-.19238.69629-.793.69629h-7.03222a3.325,3.325,0,0,0,3.43261,3.12012A8.27865,8.27865,0,0,0,153.74414,213.12891Zm-1.416-4.44043v-.26368a2.25194,2.25194,0,0,0-2.23242-2.40039,2.79442,2.79442,0,0,0-2.68847,2.66407Z"/><path class="cls-1" d="M163.7041,203.8877a.276.276,0,0,1,.24024.3125c0,.07226-.07227.52832-.28809,1.91992-.04785.28808-.19238.36035-.43262.3125a2.82277,2.82277,0,0,0-.64746-.07227,3.1213,3.1213,0,0,0-2.30469,1.15235v7.63281c0,.38379-.168.59961-.57617.59961h-1.75195c-.38379,0-.57617-.19239-.57617-.59961V204.7041c0-.47949.24023-.59961.60058-.59961h1.53614c.38379,0,.59961.12012.59961.45606l.02441.76757a3.45451,3.45451,0,0,1,2.9043-1.53613A2.29618,2.29618,0,0,1,163.7041,203.8877Z"/><path class="cls-1" d="M173.13574,198.77539c.40821.168.31153.50391.26367.86426l-.168,1.00781c-.04786.2168-.12012.36035-.31153.36035a1.04943,1.04943,0,0,1-.26465-.04785,5.05428,5.05428,0,0,0-1.63183-.3125c-1.44043,0-1.752.96-1.752,2.35254v1.10449h2.66407c.28808,0,.47949.09571.47949.40723v1.1289a.42358.42358,0,0,1-.47949.45606h-2.66407v8.97656c0,.43164-.14453.67188-.60058.67188h-1.72754c-.4082,0-.57617-.21582-.57617-.624v-9.02441h-1.2959c-.43262,0-.50488-.09668-.50488-.60059V204.584a.42358.42358,0,0,1,.45605-.47949h1.34473v-.64844a10.67414,10.67414,0,0,1,.168-1.94433,3.6976,3.6976,0,0,1,4.05664-3.24024A6.97565,6.97565,0,0,1,173.13574,198.77539Z"/><path class="cls-1" d="M182.28027,213.12891c.26368-.09571.50391-.14356.59961.21582l.33594,1.22461a1.74334,1.74334,0,0,1,.04883.28808c0,.168-.09668.28809-.38477.40723a10.64685,10.64685,0,0,1-4.03222.76855c-3.76856,0-6-2.40039-6-6.14453a5.72035,5.72035,0,0,1,5.95214-6.09668,4.706,4.706,0,0,1,3.50391,1.44043,5.91142,5.91142,0,0,1,1.417,4.2959v.36035c0,.57617-.19238.69629-.793.69629h-7.03222a3.325,3.325,0,0,0,3.43261,3.12012A8.27861,8.27861,0,0,0,182.28027,213.12891Zm-1.416-4.44043v-.26368a2.252,2.252,0,0,0-2.23242-2.40039,2.79442,2.79442,0,0,0-2.68848,2.66407Z"/><path class="cls-1" d="M193.752,213.249c.26465-.0957.43262-.12011.52832.21582l.3125,1.05664a1.61589,1.61589,0,0,1,.07129.40723c0,.19238-.11914.28809-.33594.38477a7.88378,7.88378,0,0,1-3.47949.71972c-3.69726,0-5.7373-2.30468-5.7373-6.001,0-3.71973,2.23242-6.24024,5.95312-6.24024a7.88687,7.88687,0,0,1,3.21582.67188c.3125.14453.3125.3125.24024.624l-.3125,1.27246c-.04785.21582-.14356.33594-.28711.33594a.71256.71256,0,0,1-.26465-.0957,6.00654,6.00654,0,0,0-2.30371-.52832c-2.06445,0-3.24024,1.46386-3.24024,3.8164,0,2.30371,1.05567,3.88867,3.12012,3.88867A6.06037,6.06037,0,0,0,193.752,213.249Z"/><path class="cls-1" d="M202.99121,213.44141a1.22859,1.22859,0,0,1,.26465-.04883c.14355,0,.24023.07226.28809.28808l.23925,1.2002a.49017.49017,0,0,1-.33593.60059,7.252,7.252,0,0,1-2.6875.55175,3.7366,3.7366,0,0,1-2.88086-1.00781c-.74414-.84082-.76758-1.82422-.76758-3.57617v-5.35254H195.9834c-.45606,0-.52832-.09668-.52832-.60059V204.584c0-.28808.14355-.47949.43164-.47949h1.22461v-2.61621c0-.4082.21582-.52832.59961-.57617l1.84863-.21582c.31152,0,.45605.168.45605.52734v2.88086h2.71192c.28808,0,.45605.09571.45605.40723v1.1289a.43549.43549,0,0,1-.48047.45606h-2.6875v5.49609a2.87367,2.87367,0,0,0,.31153,1.63184,1.24249,1.24249,0,0,0,1.12793.50391A4.74014,4.74014,0,0,0,202.99121,213.44141Z"/><path class="cls-1" d="M217.919,213.44141a1.22851,1.22851,0,0,1,.26464-.04883c.14356,0,.24024.07226.28809.28808l.23926,1.2002a.49017.49017,0,0,1-.33594.60059,7.252,7.252,0,0,1-2.6875.55175,3.73662,3.73662,0,0,1-2.88086-1.00781c-.74414-.84082-.76758-1.82422-.76758-3.57617v-5.35254h-1.12793c-.45605,0-.52832-.09668-.52832-.60059V204.584c0-.28808.14356-.47949.43164-.47949h1.22461v-2.61621c0-.4082.21582-.52832.59961-.57617l1.84863-.21582c.31153,0,.45606.168.45606.52734v2.88086h2.71191c.28809,0,.45606.09571.45606.40723v1.1289a.43549.43549,0,0,1-.48047.45606h-2.6875v5.49609a2.87367,2.87367,0,0,0,.31152,1.63184,1.24249,1.24249,0,0,0,1.12793.50391A4.7402,4.7402,0,0,0,217.919,213.44141Z"/><path class="cls-1" d="M222.23926,202.56836a1.51667,1.51667,0,1,1,0-3.02441,1.52567,1.52567,0,0,1,1.60742,1.51171A1.55515,1.55515,0,0,1,222.23926,202.56836Zm1.46386,12.57715c0,.43164-.19238.59961-.5996.59961h-1.68067c-.43164,0-.624-.168-.624-.59961V204.65625c0-.4082.24023-.55176.624-.55176h1.68067c.38378,0,.5996.12012.5996.55176Z"/><path class="cls-1" d="M244.24805,215.14551c0,.43164-.168.59961-.57617.59961h-1.67969c-.43262,0-.624-.168-.624-.59961v-6.57715c0-1.2959-.33593-2.28027-1.80078-2.28027a4.70192,4.70192,0,0,0-2.71191,1.08007c.04785.21582.0957,3.43262.0957,3.76856v4.00879c0,.43164-.168.59961-.57617.59961h-1.584c-.43164,0-.624-.168-.624-.59961v-6.57715c0-1.27148-.26367-2.28027-1.72754-2.28027a4.30187,4.30187,0,0,0-2.665,1.20019v7.65723c0,.43164-.1914.59961-.59961.59961h-1.68066c-.43164,0-.624-.168-.624-.59961V204.65625a.50206.50206,0,0,1,.57617-.55176h1.56055c.36035,0,.57617.12012.59961.45606l.02441.59961a5.4655,5.4655,0,0,1,3.52832-1.36817,3.39317,3.39317,0,0,1,3.04785,1.56055,6.043,6.043,0,0,1,4.10449-1.56055,3.64167,3.64167,0,0,1,3.36036,1.79981,7.46556,7.46556,0,0,1,.57617,3.48047Z"/><path class="cls-1" d="M256.00684,213.12891c.26367-.09571.5039-.14356.59961.21582l.33593,1.22461a1.74227,1.74227,0,0,1,.04883.28808c0,.168-.09668.28809-.38476.40723a10.6469,10.6469,0,0,1-4.03223.76855c-3.76856,0-6-2.40039-6-6.14453a5.72036,5.72036,0,0,1,5.95215-6.09668,4.706,4.706,0,0,1,3.5039,1.44043,5.91139,5.91139,0,0,1,1.417,4.2959v.36035c0,.57617-.19239.69629-.793.69629h-7.03223a3.325,3.325,0,0,0,3.43262,3.12012A8.27869,8.27869,0,0,0,256.00684,213.12891Zm-1.416-4.44043v-.26368a2.25194,2.25194,0,0,0-2.23242-2.40039,2.79442,2.79442,0,0,0-2.68848,2.66407Z"/><path class="cls-1" d="M261.23828,216.0332a1.53895,1.53895,0,1,1,0-3.07226,1.53089,1.53089,0,0,1,1.6084,1.53613A1.57444,1.57444,0,0,1,261.23828,216.0332Zm1.15234-4.44043c0,.31153-.12011.45606-.45605.45606h-1.2959c-.38476,0-.48047-.14453-.48047-.48047l-.26367-11.97656c0-.33594.0957-.45606.43164-.45606h1.89649c.38379,0,.45605.12012.45605.47949Z"/></svg>