<svg id="Layer_1" data-name="Layer 1" xmlns="http://www.w3.org/2000/svg" viewBox="0 0 300 250"><defs><style>.cls-1{fill:#fff;}</style></defs><path class="cls-1" d="M20.08887,68.95459H18.74414v3.62793c0,.18164-.084.29394-.26611.29394h-.77051c-.18213,0-.26611-.09814-.26611-.29394V63.5332c0-.22412.07031-.3081.28027-.3081h2.01709a3.66711,3.66711,0,0,1,2.95557,1.00879A2.91741,2.91741,0,0,1,21.30762,68.73l.01416.02832,2.2832,3.82422c.084.126.05566.29394-.14014.29394h-.84033a.43332.43332,0,0,1-.43457-.25195Zm-.44825-4.73486h-.89648v3.7539h1.07861a1.88159,1.88159,0,0,0,2.1294-1.90478C21.95215,64.6958,21.0835,64.21973,19.64062,64.21973Z"/><path class="cls-1" d="M30.18457,69.27637c0,.32226-.05566.39258-.41992.39258H25.46436a2.18957,2.18957,0,0,0,2.21289,2.36718,4.98066,4.98066,0,0,0,1.68115-.29443c.126-.042.26611-.06982.3081.09814l.1543.51856c.042.126-.02832.18213-.1543.25195a5.655,5.655,0,0,1-2.14306.40625c-2.15723,0-3.30615-1.415-3.30615-3.52978a3.24451,3.24451,0,0,1,3.26416-3.53028,2.58087,2.58087,0,0,1,1.90478.77051,3.23145,3.23145,0,0,1,.79834,2.31152Zm-1.17627-.41992v-.19629a1.59094,1.59094,0,0,0-1.583-1.77881,2.002,2.002,0,0,0-1.9331,1.9751Z"/><path class="cls-1" d="M33.15039,73.0166a4.96661,4.96661,0,0,1-1.91894-.44824.19712.19712,0,0,1-.126-.26611l.18213-.5044a.17884.17884,0,0,1,.23779-.126,4.86667,4.86667,0,0,0,1.667.42041c.8125,0,1.35889-.39258,1.35889-1.05079,0-.54638-.40625-.84033-1.05078-1.09277l-.93848-.36426a1.92693,1.92693,0,0,1-1.44287-1.76465c0-1.23291,1.12061-1.86328,2.35352-1.86328a4.15083,4.15083,0,0,1,1.8208.39258c.084.042.126.084.126.13965a.42375.42375,0,0,1-.02783.1123l-.15381.49024c-.02832.09814-.08447.14014-.15429.14014a.44839.44839,0,0,1-.11231-.02784,4.17726,4.17726,0,0,0-1.4707-.33642c-.74219,0-1.14844.39209-1.14844.86865,0,.47607.28027.7002.86816.95215l1.09278.4624a1.959,1.959,0,0,1,1.40088,1.77881C35.71387,72.21826,34.63525,73.0166,33.15039,73.0166Z"/><path class="cls-1" d="M37.77,65.13037a.6736.6736,0,1,1,0-1.34473.69418.69418,0,0,1,.72852.67237A.70274.70274,0,0,1,37.77,65.13037Zm.60254,7.45215c0,.1958-.084.29394-.26611.29394h-.64454a.25593.25593,0,0,1-.28027-.29394V66.39111a.24584.24584,0,0,1,.28027-.28027h.64454c.18212,0,.26611.084.26611.28027Z"/><path class="cls-1" d="M46.06055,72.58252c0,.18164-.084.29394-.21.29394h-.60254c-.21,0-.294-.084-.294-.26611l-.01416-.50439a2.80391,2.80391,0,0,1-2.05908.91064c-2.01709,0-2.88525-1.65283-2.88525-3.48779,0-2.05908,1.20459-3.58594,3.05322-3.58594a2.509,2.509,0,0,1,1.82129.78418v-3.418c0-.18164.042-.26611.22412-.29394.71435-.09815.72851-.09815.75635-.09815.14013,0,.21.07031.21.23828ZM44.87012,67.876a1.99379,1.99379,0,0,0-1.65283-.981c-1.26075,0-1.98926,1.03662-1.98926,2.57764,0,1.48486.6582,2.5913,1.877,2.5913a2.354,2.354,0,0,0,1.76514-.92431Z"/><path class="cls-1" d="M53.5083,69.27637c0,.32226-.05566.39258-.41992.39258H48.78809A2.18957,2.18957,0,0,0,51.001,72.03613a4.97849,4.97849,0,0,0,1.68115-.29443c.126-.042.26611-.06982.3081.09814l.15381.51856c.04248.126-.02783.18213-.15381.25195a5.655,5.655,0,0,1-2.14306.40625c-2.15723,0-3.30567-1.415-3.30567-3.52978a3.24415,3.24415,0,0,1,3.26368-3.53028,2.58167,2.58167,0,0,1,1.90478.77051,3.23145,3.23145,0,0,1,.79834,2.31152ZM52.332,68.85645v-.19629a1.59094,1.59094,0,0,0-1.583-1.77881,2.002,2.002,0,0,0-1.9331,1.9751Z"/><path class="cls-1" d="M60.59229,72.58252c0,.1958-.06983.29394-.26612.29394H59.668c-.18213,0-.26611-.09814-.26611-.29394V68.66016c0-.99463-.25245-1.709-1.373-1.709a3.18686,3.18686,0,0,0-1.93262.8125v4.81885c0,.1958-.08447.29394-.2666.29394h-.6582a.24763.24763,0,0,1-.26612-.28027V66.39111c0-.19629.06983-.28027.26612-.28027h.61621c.16845,0,.26611.06982.26611.252l.01416.43457a3.6016,3.6016,0,0,1,2.29736-.84082c1.61084,0,2.22706.98047,2.22706,2.50733Z"/><path class="cls-1" d="M64.90234,72.07812a3.098,3.098,0,0,0,.88282-.168.183.183,0,0,1,.25195.126l.1123.44825c.02784.14013-.01416.21-.18212.27978a3.83543,3.83543,0,0,1-1.30274.25244,2.123,2.123,0,0,1-1.52685-.51855,2.5781,2.5781,0,0,1-.43409-1.877V66.95117h-.7705c-.18213,0-.21045-.02783-.21045-.21v-.43408c0-.14014.05615-.19629.18213-.19629h.79882V64.51416c0-.19629.05567-.25244.2378-.28027l.68652-.09815h.05615c.13965,0,.21.09815.21.252v1.72314h1.65284c.126,0,.19628.02783.19628.18213V66.769c0,.14014-.07031.18213-.21045.18213H63.894V70.7334a1.58653,1.58653,0,0,0,.23828,1.06445A1.0031,1.0031,0,0,0,64.90234,72.07812Z"/><path class="cls-1" d="M68.00928,65.13037a.6736.6736,0,1,1,0-1.34473.69417.69417,0,0,1,.72851.67237A.70274.70274,0,0,1,68.00928,65.13037Zm.60254,7.45215c0,.1958-.084.29394-.26612.29394h-.64453a.25593.25593,0,0,1-.28027-.29394V66.39111a.24584.24584,0,0,1,.28027-.28027h.64453c.18213,0,.26612.084.26612.28027Z"/><path class="cls-1" d="M76.8042,72.69434c0,.14013-.07031.18212-.21.18212h-.58838a.91781.91781,0,0,1-.91065-1.03662h-.02783a2.56734,2.56734,0,0,1-2.10107,1.17676c-1.93311,0-2.7876-1.63916-2.7876-3.40381,0-2.33935,1.38672-3.65625,2.9834-3.65625a2.38175,2.38175,0,0,1,1.877.8545l.01416-.46192c0-.16846.11231-.23828.26612-.23828h.63037c.168,0,.252.084.252.26611v4.90284a1.5307,1.5307,0,0,0,.07031.63037.2362.2362,0,0,0,.23828.126h.09766c.126,0,.19629.02783.19629.18213Zm-1.793-4.77637a1.9509,1.9509,0,0,0-1.69482-1.00879c-1.07862,0-1.89112.95264-1.89112,2.61963,0,1.54053.71436,2.49316,1.72266,2.49316a2.10181,2.10181,0,0,0,1.86328-1.41455Z"/><path class="cls-1" d="M79.33545,72.58252c0,.1958-.08447.29394-.25244.29394h-.68653c-.168,0-.25195-.084-.25195-.28027V63.29541c0-.19629.042-.25244.21-.28027.72852-.09815.74268-.09815.77051-.09815.126,0,.21045.05615.21045.23828Z"/><path class="cls-1" d="M21.62988,87.15479c0-.78418-.54638-1.23243-1.23291-1.59668l-1.77881-.95264a2.58834,2.58834,0,0,1-1.541-2.269c0-1.61084,1.499-2.4795,2.96973-2.4795a5.39234,5.39234,0,0,1,2.227.42041c.14013.05567.22412.126.22412.2378a.40938.40938,0,0,1-.02784.12646l-.21.57422a.20165.20165,0,0,1-.19629.15381.36849.36849,0,0,1-.168-.042,4.83026,4.83026,0,0,0-1.77881-.40625c-.78467,0-1.69531.36425-1.69531,1.30273A1.64611,1.64611,0,0,0,19.51465,83.667l1.499.79834a2.88985,2.88985,0,0,1,1.90479,2.59131c0,1.83545-1.52686,2.75977-3.24951,2.75977a7.749,7.749,0,0,1-2.35352-.39209.25876.25876,0,0,1-.18213-.35059l.18213-.62988c.05615-.18213.19629-.21045.36426-.14014A5.8021,5.8021,0,0,0,19.669,88.71C20.62109,88.71,21.62988,88.26172,21.62988,87.15479Z"/><path class="cls-1" d="M30.61865,89.49414c0,.14014-.07031.18213-.21.18213h-.58838a.91781.91781,0,0,1-.91064-1.03662h-.02783a2.56738,2.56738,0,0,1-2.10108,1.17676c-1.9331,0-2.7876-1.63916-2.7876-3.40381,0-2.33936,1.38672-3.65625,2.9834-3.65625a2.38176,2.38176,0,0,1,1.877.85449l.01416-.46191c0-.16846.1123-.23829.26611-.23829h.63037c.168,0,.252.084.252.26612v4.90283a1.5304,1.5304,0,0,0,.07032.63037.23618.23618,0,0,0,.23828.126h.09765c.126,0,.19629.02783.19629.18213Zm-1.793-4.77637A1.95089,1.95089,0,0,0,27.13086,83.709c-1.07861,0-1.89111.95264-1.89111,2.61963,0,1.54053.71435,2.49317,1.72265,2.49317a2.10181,2.10181,0,0,0,1.86328-1.41455Z"/><path class="cls-1" d="M33.1499,89.38232c0,.1958-.08447.29395-.25244.29395h-.68652c-.168,0-.252-.084-.252-.28027V80.09521c0-.19628.042-.25244.21-.28027.72851-.09814.74267-.09814.7705-.09814.126,0,.21045.05615.21045.23828Z"/><path class="cls-1" d="M40.61377,86.07617c0,.32227-.05566.39258-.41992.39258h-4.3003a2.18958,2.18958,0,0,0,2.2129,2.36719,4.97849,4.97849,0,0,0,1.68115-.29444c.126-.042.26611-.06982.3081.09815l.15381.51855c.04248.126-.02783.18213-.15381.252a5.655,5.655,0,0,1-2.14306.40625c-2.15723,0-3.30567-1.415-3.30567-3.52979a3.24413,3.24413,0,0,1,3.26367-3.53027,2.58166,2.58166,0,0,1,1.90479.77051,3.23142,3.23142,0,0,1,.79834,2.31152Zm-1.17627-.41992V85.46a1.59094,1.59094,0,0,0-1.583-1.77881,2.002,2.002,0,0,0-1.9331,1.9751Z"/><path class="cls-1" d="M43.57959,89.81641a4.96666,4.96666,0,0,1-1.919-.44825.19712.19712,0,0,1-.126-.26611l.18213-.50439a.179.179,0,0,1,.23779-.126,4.86667,4.86667,0,0,0,1.667.42041c.8125,0,1.35889-.39258,1.35889-1.05078,0-.54639-.40625-.84033-1.05078-1.09277l-.93848-.36426a1.927,1.927,0,0,1-1.44287-1.76465c0-1.23291,1.12061-1.86328,2.35352-1.86328a4.15069,4.15069,0,0,1,1.8208.39258c.084.042.126.084.126.13964a.42381.42381,0,0,1-.02783.11231l-.1543.49023c-.02783.09815-.084.14014-.1538.14014a.45382.45382,0,0,1-.11231-.02783,4.177,4.177,0,0,0-1.4707-.33643c-.74219,0-1.14844.39209-1.14844.86865,0,.47608.28027.7002.86865.95215l1.09229.46241a1.959,1.959,0,0,1,1.40088,1.7788C46.14307,89.01807,45.06445,89.81641,43.57959,89.81641Z"/><path class="cls-1" d="M57.1626,88.26172c.126-.07031.23779-.04248.3081.126l.18213.43408a.25743.25743,0,0,1-.15429.39209,6.1972,6.1972,0,0,1-2.70362.60254c-2.92724,0-4.30029-2.22705-4.30029-4.9585,0-2.67578,1.59717-5.001,4.39844-5.001a5.1529,5.1529,0,0,1,2.56347.63037c.11231.06983.168.11182.168.19629a.47817.47817,0,0,1-.042.168l-.22412.51807c-.042.09814-.09815.14014-.168.14014a.227.227,0,0,1-.126-.042,4.0978,4.0978,0,0,0-2.0874-.56006,2.80216,2.80216,0,0,0-2.227,1.06446,4.43362,4.43362,0,0,0-.86865,2.81543c0,2.10107.95263,3.99219,3.0957,3.99219A5.05893,5.05893,0,0,0,57.1626,88.26172Z"/><path class="cls-1" d="M61.40283,89.81641c-2.17138,0-3.13769-1.541-3.13769-3.544,0-1.9751,1.13427-3.51611,3.22168-3.51611,2.17089,0,3.15136,1.499,3.15136,3.53027C64.63818,88.26172,63.48975,89.81641,61.40283,89.81641Zm.06983-6.13526c-1.5127,0-1.9751,1.33057-1.9751,2.56348,0,1.28857.43408,2.64746,1.91894,2.64746,1.47071,0,1.98926-1.28906,1.98926-2.5918S62.9292,83.68115,61.47266,83.68115Z"/><path class="cls-1" d="M71.80615,89.38232c0,.1958-.06982.29395-.26611.29395h-.6582c-.18213,0-.26612-.09815-.26612-.29395V85.46c0-.99463-.25244-1.709-1.373-1.709a3.18675,3.18675,0,0,0-1.93262.8125v4.81884c0,.1958-.08447.29395-.2666.29395h-.65821a.24763.24763,0,0,1-.26611-.28027V83.19092c0-.19629.06982-.28028.26611-.28028h.61621c.16846,0,.26612.06983.26612.252l.01416.43457a3.60154,3.60154,0,0,1,2.29736-.84082c1.61084,0,2.22705.98047,2.22705,2.50732Z"/><path class="cls-1" d="M75.23389,89.81641a4.96661,4.96661,0,0,1-1.91895-.44825.19712.19712,0,0,1-.126-.26611l.18213-.50439a.179.179,0,0,1,.2378-.126,4.86656,4.86656,0,0,0,1.667.42041c.8125,0,1.35889-.39258,1.35889-1.05078,0-.54639-.40625-.84033-1.05079-1.09277l-.93847-.36426a1.927,1.927,0,0,1-1.44287-1.76465c0-1.23291,1.1206-1.86328,2.35351-1.86328a4.15069,4.15069,0,0,1,1.8208.39258c.084.042.126.084.126.13964a.42381.42381,0,0,1-.02783.11231l-.1543.49023c-.02783.09815-.084.14014-.15381.14014a.45386.45386,0,0,1-.1123-.02783A4.17705,4.17705,0,0,0,75.584,83.667c-.74218,0-1.14843.39209-1.14843.86865,0,.47608.28027.7002.86865.95215l1.09228.46241a1.959,1.959,0,0,1,1.40088,1.7788C77.79736,89.01807,76.71875,89.81641,75.23389,89.81641Z"/><path class="cls-1" d="M84.71436,89.36816c0,.21-.084.30811-.28028.30811h-.60254a.24328.24328,0,0,1-.26611-.26611l-.01367-.43409a3.38451,3.38451,0,0,1-2.21338.84034c-1.61084,0-2.19922-1.03662-2.19922-2.53565V83.19092a.24584.24584,0,0,1,.28027-.28028h.63037a.24551.24551,0,0,1,.27979.28028v3.9082c0,.99414.22461,1.69483,1.34473,1.69483a3.10654,3.10654,0,0,0,1.84912-.82666V83.19092c0-.19629.084-.28028.26611-.28028h.65869c.18213,0,.26612.084.26612.28028Z"/><path class="cls-1" d="M87.76416,89.38232c0,.1958-.08447.29395-.25244.29395H86.8252c-.168,0-.252-.084-.252-.28027V80.09521c0-.19628.042-.25244.21-.28027.72852-.09814.74268-.09814.77051-.09814.126,0,.21045.05615.21045.23828Z"/><path class="cls-1" d="M92.13232,88.87793a3.09763,3.09763,0,0,0,.88282-.168.183.183,0,0,1,.25195.126l.1123.44824c.02784.14014-.01416.21-.18212.27978a3.83512,3.83512,0,0,1-1.30274.25245,2.12293,2.12293,0,0,1-1.52685-.51856,2.578,2.578,0,0,1-.43457-1.87695V83.751h-.77c-.18213,0-.21045-.02784-.21045-.21v-.43409c0-.14013.05615-.19629.18213-.19629h.79834V81.314c0-.19628.05615-.25244.23828-.28027l.68652-.09814h.05615c.14014,0,.21.09814.21.25195v1.72314h1.65284c.126,0,.19628.02784.19628.18213v.47608c0,.14013-.07031.18213-.21044.18213H91.124V87.5332a1.58654,1.58654,0,0,0,.23828,1.06446A1.00314,1.00314,0,0,0,92.13232,88.87793Z"/><path class="cls-1" d="M100.46436,89.49414c0,.14014-.07032.18213-.21.18213H99.666a.91781.91781,0,0,1-.91065-1.03662h-.02783a2.56736,2.56736,0,0,1-2.10108,1.17676c-1.9331,0-2.78759-1.63916-2.78759-3.40381,0-2.33936,1.38672-3.65625,2.9834-3.65625a2.38174,2.38174,0,0,1,1.87695.85449l.01416-.46191c0-.16846.1123-.23829.26611-.23829h.63037c.168,0,.252.084.252.26612v4.90283a1.53063,1.53063,0,0,0,.07031.63037.23619.23619,0,0,0,.23828.126h.09766c.126,0,.19629.02783.19629.18213Zm-1.793-4.77637A1.9509,1.9509,0,0,0,96.97656,83.709c-1.07861,0-1.89111.95264-1.89111,2.61963,0,1.54053.71435,2.49317,1.72266,2.49317a2.10183,2.10183,0,0,0,1.86328-1.41455Z"/><path class="cls-1" d="M107.4917,89.38232c0,.1958-.06982.29395-.26611.29395h-.65821c-.18213,0-.26611-.09815-.26611-.29395V85.46c0-.99463-.25244-1.709-1.37305-1.709a3.18675,3.18675,0,0,0-1.93261.8125v4.81884c0,.1958-.08448.29395-.26661.29395h-.6582a.24763.24763,0,0,1-.26611-.28027V83.19092c0-.19629.06982-.28028.26611-.28028h.61621c.16846,0,.26611.06983.26611.252l.01417.43457a3.60154,3.60154,0,0,1,2.29736-.84082c1.61084,0,2.227.98047,2.227,2.50732Z"/><path class="cls-1" d="M111.80176,88.87793a3.09763,3.09763,0,0,0,.88281-.168.183.183,0,0,1,.252.126l.11231.44824c.02783.14014-.01416.21-.18213.27978a3.83512,3.83512,0,0,1-1.30274.25245,2.123,2.123,0,0,1-1.52685-.51856,2.57808,2.57808,0,0,1-.43408-1.87695V83.751h-.77051c-.18213,0-.21045-.02784-.21045-.21v-.43409c0-.14013.05615-.19629.18213-.19629h.79883V81.314c0-.19628.05566-.25244.23779-.28027l.68652-.09814h.05616c.13964,0,.21.09814.21.25195v1.72314h1.65283c.126,0,.19629.02784.19629.18213v.47608c0,.14013-.07031.18213-.21045.18213h-1.63867V87.5332a1.58649,1.58649,0,0,0,.23828,1.06446A1.00314,1.00314,0,0,0,111.80176,88.87793Z"/><path class="cls-1" d="M30.959,50.145c0,.54785-.27392.73047-.73095.73047H19.39111c-.54785,0-.7915-.18262-.7915-.85254V30.5708a.66789.66789,0,0,1,.73047-.76074h2.43554c.54786,0,.76075.21289.76075.792v17.0166H30.228c.51758,0,.731.24317.731.7002Z"/><path class="cls-1" d="M35.37256,34.16357a1.92159,1.92159,0,1,1,2.03955-1.918A1.95429,1.95429,0,0,1,35.37256,34.16357Zm1.85693,15.95118c0,.54785-.24365.76074-.76123.76074H34.3374c-.54785,0-.7915-.21289-.7915-.76074V36.812c0-.51758.30469-.70019.7915-.70019h2.13086c.48731,0,.76123.15136.76123.70019Z"/><path class="cls-1" d="M44.93066,50.11475c0,.51757-.24316.76074-.66943.76074H41.94775a.63632.63632,0,0,1-.70019-.73047V30.17529c0-.51758.21289-.66992.60889-.73047l2.46533-.335c.36572,0,.60888.18262.60888.66993Z"/><path class="cls-1" d="M62.03906,36.84229,56.042,52.61084c-1.37011,3.62207-3.0747,4.90039-6.72754,4.90039a6.94854,6.94854,0,0,1-1.61328-.15137c-.51758-.09179-.4873-.39648-.42627-.792l.21289-1.583c.061-.3955.21338-.54785.54785-.54785.396,0,.85254.0918,1.21778.0918a3.02693,3.02693,0,0,0,3.2876-2.10059l.57861-1.37011L47.5791,36.78076a.71225.71225,0,0,1-.06055-.24316.4242.4242,0,0,1,.45655-.42578h2.92236a.74378.74378,0,0,1,.76074.51757l3.37891,10.0752L58.23389,36.812a.83861.83861,0,0,1,.91308-.70019h2.46582a.43407.43407,0,0,1,.48682.42578A1.34638,1.34638,0,0,1,62.03906,36.84229Z"/><path class="cls-1" d="M78.50732,50.87549H72.84521c-.63964,0-.7915-.24317-.7915-.88281V30.60205c0-.63965.27393-.792.91309-.792h4.5664c4.90088,0,7.64063,1.49121,7.64063,5.14453a4.35976,4.35976,0,0,1-3.43994,4.47461v.03125a5.15208,5.15208,0,0,1,5.08349,5.26562C86.81738,49.65771,82.82959,50.87549,78.50732,50.87549Zm-.85253-18.082H75.9502v5.66211h1.583c2.22217,0,3.80518-.57813,3.80518-3.044C81.33838,33.43311,79.78564,32.79346,77.65479,32.79346Zm3.56152,8.98047a7.25387,7.25387,0,0,0-3.25733-.54786H75.9502v6.63575h2.25244a8.151,8.151,0,0,0,2.86181-.39551A2.88722,2.88722,0,0,0,82.82959,44.605,2.92643,2.92643,0,0,0,81.21631,41.77393Z"/><path class="cls-1" d="M101.064,47.55713c.335-.12109.63916-.18262.76075.27441l.42627,1.55274a2.19383,2.19383,0,0,1,.061.36523c0,.21289-.12158.36524-.4873.51758a13.52172,13.52172,0,0,1-5.11377.97363c-4.7793,0-7.61035-3.04394-7.61035-7.793,0-4.5664,3.01367-7.73242,7.54931-7.73242a5.97006,5.97006,0,0,1,4.44434,1.82715,7.49748,7.49748,0,0,1,1.7959,5.44824v.457c0,.73047-.24317.88282-1.0044.88282H92.96631a4.21621,4.21621,0,0,0,4.353,3.957A10.498,10.498,0,0,0,101.064,47.55713Zm-1.79638-5.63184v-.334A2.85558,2.85558,0,0,0,96.437,38.54639a3.54406,3.54406,0,0,0-3.40967,3.3789Z"/><path class="cls-1" d="M115.61523,47.70947c.335-.12207.54786-.15234.66993.27442l.3955,1.33886a2.04323,2.04323,0,0,1,.09131.51758c0,.24414-.15234.36524-.42627.48731a9.987,9.987,0,0,1-4.41406.91308c-4.6875,0-7.27539-2.92187-7.27539-7.61035,0-4.71875,2.83105-7.915,7.5498-7.915a10.01338,10.01338,0,0,1,4.07911.85254c.3955.18262.3955.39551.3042.792l-.39551,1.61328c-.061.27344-.18262.42579-.36573.42579a.90388.90388,0,0,1-.33447-.1211,7.60338,7.60338,0,0,0-2.92236-.66992c-2.61817,0-4.10986,1.85645-4.10986,4.83984,0,2.92286,1.33935,4.93164,3.95752,4.93164A7.68035,7.68035,0,0,0,115.61523,47.70947Z"/><path class="cls-1" d="M131.01807,50.87549h-2.61768a1.26,1.26,0,0,1-1.21777-.63965l-3.89649-6.39258-.335.30469v5.9668c0,.51757-.21289.76074-.70019.76074h-2.28272a.6497.6497,0,0,1-.70019-.73047V30.17529c0-.4873.18261-.66992.63916-.73047l2.43506-.335c.36572,0,.60888.18262.60888.7002v12.207h.061L127,36.5376a.84616.84616,0,0,1,.82178-.42578h2.70947c.24365,0,.39551.12109.39551.30371a.56437.56437,0,0,1-.12158.335l-4.353,5.47949,4.93115,7.70215a1.12405,1.12405,0,0,1,.21338.57812C131.59668,50.78369,131.32275,50.87549,131.01807,50.87549Z"/></svg>