<svg id="Layer_1" data-name="Layer 1" xmlns="http://www.w3.org/2000/svg" viewBox="0 0 300 250"><defs><style>.cls-1{fill:#fff;}</style></defs><path class="cls-1" d="M20.07471,125.69678h-2.353c-.22412,0-.29395-.06983-.29395-.30811v-9.03515c0-.2378.084-.30811.3501-.30811h1.91895c1.96093,0,3.27783.64453,3.27783,2.35352a2.05286,2.05286,0,0,1-1.68115,2.11523v.01367a2.3492,2.3492,0,0,1,2.42334,2.39551C23.7168,125.12256,22.03613,125.69678,20.07471,125.69678ZM19.62646,117.04H18.73v3.12353h.95264c.98047,0,2.01709-.252,2.01709-1.68066C21.69971,117.292,20.74756,117.04,19.62646,117.04Zm1.94727,4.39844a3.61678,3.61678,0,0,0-1.667-.32227H18.73v3.58594h1.21875a3.845,3.845,0,0,0,1.52686-.23828,1.74612,1.74612,0,0,0,.09814-3.02539Z"/><path class="cls-1" d="M28.04053,125.83691c-2.1709,0-3.1377-1.541-3.1377-3.54394,0-1.9751,1.13477-3.51611,3.22217-3.51611,2.1709,0,3.15137,1.499,3.15137,3.53027C31.27637,124.28223,30.12793,125.83691,28.04053,125.83691Zm.07031-6.13525c-1.5127,0-1.9751,1.33057-1.9751,2.56348,0,1.28857.43408,2.647,1.919,2.647,1.4707,0,1.98926-1.28857,1.98926-2.59131S29.56738,119.70166,28.11084,119.70166Z"/><path class="cls-1" d="M35.51709,125.83691c-2.17139,0-3.1377-1.541-3.1377-3.54394,0-1.9751,1.13428-3.51611,3.22168-3.51611,2.1709,0,3.15137,1.499,3.15137,3.53027C38.75244,124.28223,37.604,125.83691,35.51709,125.83691Zm.06982-6.13525c-1.51269,0-1.97509,1.33057-1.97509,2.56348,0,1.28857.43408,2.647,1.91894,2.647,1.4707,0,1.98926-1.28857,1.98926-2.59131S37.04346,119.70166,35.58691,119.70166Z"/><path class="cls-1" d="M43.81934,125.4585l-2.08692-3.1377-.3081.30811v2.75976c0,.22412-.09815.30811-.28028.30811h-.65869c-.168,0-.25195-.09815-.25195-.28028v-9.30078c0-.18213.05615-.25244.22412-.28027.67236-.09815.70019-.11182.72852-.11182.14013,0,.23828.084.23828.26612v5.645h.02783l2.1709-2.54981a.34833.34833,0,0,1,.29443-.15381h.91064c.15381,0,.15381.126.06983.21l-2.21338,2.52149,2.50732,3.68408c.12647.18213.12647.3501-.1538.3501h-.77051A.4779.4779,0,0,1,43.81934,125.4585Z"/><path class="cls-1" d="M50.5376,119.11328l1.8208,5.23877,1.76514-5.21094a.26439.26439,0,0,1,.29394-.21H55.188c.126,0,.18213.05615.18213.14014a.41812.41812,0,0,1-.02783.126l-2.73145,7.32617c-.61621,1.65234-1.31689,2.24121-2.82959,2.24121a3.20051,3.20051,0,0,1-.63037-.05664.18514.18514,0,0,1-.1543-.21v-.07032l.07031-.53222a.18749.18749,0,0,1,.21-.19629H49.333c.15381.01465.3501.042.49023.042a1.46745,1.46745,0,0,0,1.52686-1.03613l.36426-.89649L49.207,119.16943c-.042-.1123,0-.23828.14014-.23828h.92431A.24727.24727,0,0,1,50.5376,119.11328Z"/><path class="cls-1" d="M59.09229,125.83691c-2.1709,0-3.1377-1.541-3.1377-3.54394,0-1.9751,1.13477-3.51611,3.22217-3.51611,2.1709,0,3.15136,1.499,3.15136,3.53027C62.32812,124.28223,61.17969,125.83691,59.09229,125.83691Zm.07031-6.13525c-1.5127,0-1.9751,1.33057-1.9751,2.56348,0,1.28857.43408,2.647,1.919,2.647,1.4707,0,1.98925-1.28857,1.98925-2.59131S60.61914,119.70166,59.1626,119.70166Z"/><path class="cls-1" d="M69.38428,125.38867c0,.21-.084.30811-.28028.30811h-.60254a.24329.24329,0,0,1-.26611-.26612l-.01367-.43408a3.38449,3.38449,0,0,1-2.21338.84033c-1.61084,0-2.19922-1.03662-2.19922-2.53564v-4.08984a.24585.24585,0,0,1,.28028-.28028h.63037a.2455.2455,0,0,1,.27978.28028v3.90771c0,.99463.22461,1.69531,1.34473,1.69531a3.10654,3.10654,0,0,0,1.84912-.82666v-4.77636c0-.19629.084-.28028.26611-.28028h.65869c.18213,0,.26612.084.26612.28028Z"/><path class="cls-1" d="M72.3916,119.18311l.01416.47656a1.98061,1.98061,0,0,1,1.61084-.88281,2.36807,2.36807,0,0,1,.40625.042c.126.02832.126.14013.11231.23828l-.09815.63037a.1433.1433,0,0,1-.1543.14014c-.11181,0-.1958-.042-.44824-.042a1.833,1.833,0,0,0-1.40039.84034v4.77685c0,.18213-.08447.294-.2666.294h-.6582c-.18213,0-.26612-.09815-.26612-.294v-6.1914c0-.21045.09815-.28028.26612-.28028h.60254C72.294,118.93115,72.3916,119.001,72.3916,119.18311Z"/><path class="cls-1" d="M84,117.06836H80.31592v3.06738h3.292c.1958,0,.28027.084.28027.252v.50439c0,.19629-.07031.25244-.2666.25244H80.31592v4.2583c0,.23779-.06983.294-.28028.294h-.728c-.22412,0-.29444-.042-.29444-.30811v-9.063c0-.19629.07032-.28027.26612-.28027H84.21a.20373.20373,0,0,1,.22412.25244l-.05566.5459C84.36426,117.04,84.23828,117.06836,84,117.06836Z"/><path class="cls-1" d="M88.67432,121.77441H87.32959v3.62842c0,.18213-.084.294-.26611.294H86.293c-.18213,0-.26611-.09815-.26611-.294v-9.04931c0-.22413.07031-.30811.28027-.30811h2.01709a3.66711,3.66711,0,0,1,2.95557,1.00879,2.91788,2.91788,0,0,1-1.38672,4.49658l.01416.02783,2.2832,3.82422c.084.126.05615.294-.14014.294H91.21a.43333.43333,0,0,1-.43457-.252ZM88.22607,117.04h-.89648V120.794H88.4082a1.8816,1.8816,0,0,0,2.1294-1.90479C90.5376,117.5166,89.669,117.04,88.22607,117.04Z"/><path class="cls-1" d="M99.25977,125.44482c0,.168-.06983.252-.27979.252H94.09131c-.23828,0-.29443-.05616-.29443-.294v-9.07715c0-.19629.07031-.28027.26611-.28027h4.93066c.21045,0,.23828.09814.22412.26611l-.05566.53223c-.01416.19629-.14014.22461-.37842.22461H95.09961v3.06738h3.292c.1958,0,.27979.084.27979.252v.50439c0,.19629-.06983.25244-.26612.25244H95.09961v3.52979h3.86621c.21,0,.294.06982.294.23779Z"/><path class="cls-1" d="M106.3999,125.44482c0,.168-.06982.252-.27978.252h-4.88867c-.23829,0-.29444-.05616-.29444-.294v-9.07715c0-.19629.07031-.28027.26611-.28027h4.93067c.21045,0,.23828.09814.22412.26611l-.05566.53223c-.01416.19629-.14014.22461-.37842.22461h-3.68408v3.06738h3.292c.1958,0,.28027.084.28027.252v.50439c0,.19629-.07031.25244-.2666.25244h-3.30566v3.52979H106.106c.21,0,.29394.06982.29394.23779Z"/><path class="cls-1" d="M20.34131,141.83691a2.42188,2.42188,0,0,1-1.84912-.78515v3.39062c0,.21-.126.26563-.30811.26563h-.6167c-.18213,0-.26611-.09766-.26611-.29395v-9.23144c0-.19532.084-.252.26611-.252h.53272c.21,0,.32178.05664.32178.252v.49023a2.857,2.857,0,0,1,2.0874-.89648c1.98877,0,2.87158,1.667,2.87158,3.47461C23.38086,140.11328,22.37207,141.83691,20.34131,141.83691Zm-.07031-6.10742a2.35338,2.35338,0,0,0-1.77881.89649v3.292a2.03424,2.03424,0,0,0,1.69482.98047c1.44287,0,1.94727-1.37305,1.94727-2.62012C22.13428,137.05957,21.728,135.72949,20.271,135.72949Z"/><path class="cls-1" d="M26.00977,135.18262l.01416.47656a1.98183,1.98183,0,0,1,1.61084-.88281,2.41847,2.41847,0,0,1,.40625.042c.126.02832.126.14062.1123.23828l-.09814.63086a.14321.14321,0,0,1-.1543.13965c-.11182,0-.1958-.042-.44824-.042a1.83222,1.83222,0,0,0-1.40039.84082v4.77636c0,.18262-.08448.29395-.26661.29395h-.6582c-.18213,0-.26611-.09766-.26611-.29395v-6.1914c0-.21.09814-.28028.26611-.28028H25.73C25.91211,134.93066,26.00977,135.001,26.00977,135.18262Z"/><path class="cls-1" d="M31.93311,141.83691c-2.17139,0-3.1377-1.541-3.1377-3.54394,0-1.97559,1.13428-3.5166,3.22168-3.5166,2.1709,0,3.15137,1.499,3.15137,3.53027C35.16846,140.28223,34.02,141.83691,31.93311,141.83691Zm.06982-6.13574c-1.5127,0-1.9751,1.33106-1.9751,2.56348,0,1.28906.43408,2.64746,1.91895,2.64746,1.4707,0,1.98926-1.28906,1.98926-2.5918S33.45947,135.70117,32.00293,135.70117Z"/><path class="cls-1" d="M39.67529,141.83691a2.42188,2.42188,0,0,1-1.84912-.78515v3.39062c0,.21-.126.26563-.3081.26563h-.6167c-.18213,0-.26612-.09766-.26612-.29395v-9.23144c0-.19532.084-.252.26612-.252h.53271c.21,0,.32178.05664.32178.252v.49023a2.857,2.857,0,0,1,2.0874-.89648c1.98877,0,2.87158,1.667,2.87158,3.47461C42.71484,140.11328,41.70605,141.83691,39.67529,141.83691Zm-.07031-6.10742a2.35339,2.35339,0,0,0-1.77881.89649v3.292a2.03426,2.03426,0,0,0,1.69483.98047c1.44287,0,1.94726-1.37305,1.94726-2.62012C41.46826,137.05957,41.062,135.72949,39.605,135.72949Z"/><path class="cls-1" d="M49.78418,138.09668c0,.32227-.05566.39258-.41992.39258H45.064a2.18984,2.18984,0,0,0,2.2129,2.36719,4.96868,4.96868,0,0,0,1.68115-.29493c.126-.042.26611-.06933.3081.09864l.1543.51855c.042.126-.02832.18164-.1543.25195a5.65486,5.65486,0,0,1-2.14306.40625c-2.15723,0-3.30616-1.415-3.30616-3.53027a3.24476,3.24476,0,0,1,3.26416-3.53027,2.58273,2.58273,0,0,1,1.90479.77051,3.2322,3.2322,0,0,1,.79834,2.31152Zm-1.17627-.41992v-.19629a1.5911,1.5911,0,0,0-1.583-1.7793,2.00206,2.00206,0,0,0-1.9331,1.97559Z"/><path class="cls-1" d="M52.32959,135.18262l.01416.47656a1.98185,1.98185,0,0,1,1.61084-.88281,2.41847,2.41847,0,0,1,.40625.042c.126.02832.126.14062.1123.23828l-.09814.63086a.14321.14321,0,0,1-.1543.13965c-.11181,0-.1958-.042-.44824-.042a1.83383,1.83383,0,0,0-1.40088.84082v4.77636c0,.18262-.084.29395-.26611.29395h-.6582c-.18213,0-.26612-.09766-.26612-.29395v-6.1914c0-.21.09815-.28028.26612-.28028h.60253C52.23193,134.93066,52.32959,135.001,52.32959,135.18262Z"/><path class="cls-1" d="M58.07031,140.89844a3.11494,3.11494,0,0,0,.88281-.168.1833.1833,0,0,1,.252.126l.1123.44824c.02783.13965-.01416.21-.18213.28027a3.84751,3.84751,0,0,1-1.30273.25195,2.123,2.123,0,0,1-1.52686-.51855,2.57872,2.57872,0,0,1-.43408-1.877v-3.66993h-.77051c-.18212,0-.21045-.02832-.21045-.21V135.127c0-.13965.05616-.19629.18213-.19629h.79883V133.334c0-.19628.05567-.25195.2378-.28027l.68652-.09766h.05615c.13965,0,.21.09766.21.252v1.72265h1.65283c.126,0,.19629.02832.19629.18262v.47559c0,.14062-.07031.18261-.21045.18261H57.062v3.78223a1.58721,1.58721,0,0,0,.23828,1.06445A1.0031,1.0031,0,0,0,58.07031,140.89844Z"/><path class="cls-1" d="M61.31787,135.11328l1.8208,5.23828,1.76514-5.21094a.2648.2648,0,0,1,.29394-.21h.77051c.126,0,.18213.05664.18213.14063a.41812.41812,0,0,1-.02783.126l-2.73145,7.32617c-.61621,1.65234-1.31689,2.24121-2.82959,2.24121a3.20051,3.20051,0,0,1-.63037-.05664.18514.18514,0,0,1-.15429-.21v-.07032l.07031-.53222a.18748.18748,0,0,1,.21-.19629h.05615c.15381.01465.3501.042.49024.042a1.46744,1.46744,0,0,0,1.52685-1.03613l.36426-.89649L59.9873,135.169c-.042-.11231,0-.23829.14014-.23829h.92432A.24763.24763,0,0,1,61.31787,135.11328Z"/><path class="cls-1" d="M76.69287,141.51465c0,.13965-.07031.18164-.21.18164h-.58838a.9174.9174,0,0,1-.91064-1.03613h-.02784a2.56734,2.56734,0,0,1-2.10107,1.17675c-1.9331,0-2.7876-1.63964-2.7876-3.40429,0-2.33887,1.38672-3.65625,2.9834-3.65625a2.38327,2.38327,0,0,1,1.87695.85449l.01416-.46191c0-.168.11231-.23829.26612-.23829h.63037c.168,0,.25195.084.25195.26661v4.90234a1.53349,1.53349,0,0,0,.07031.63086.23622.23622,0,0,0,.23829.126h.09765c.126,0,.19629.02734.19629.18164Zm-1.793-4.77637a1.94989,1.94989,0,0,0-1.69482-1.00879c-1.07862,0-1.89112.95215-1.89112,2.61914,0,1.541.71436,2.49317,1.72266,2.49317a2.10134,2.10134,0,0,0,1.86328-1.41407Z"/><path class="cls-1" d="M81.05908,141.83691a2.42188,2.42188,0,0,1-1.84912-.78515v3.39062c0,.21-.126.26563-.3081.26563h-.6167c-.18213,0-.26612-.09766-.26612-.29395v-9.23144c0-.19532.084-.252.26612-.252h.53271c.21,0,.32178.05664.32178.252v.49023a2.857,2.857,0,0,1,2.0874-.89648c1.98877,0,2.87158,1.667,2.87158,3.47461C84.09863,140.11328,83.08984,141.83691,81.05908,141.83691Zm-.07031-6.10742A2.35339,2.35339,0,0,0,79.21,136.626v3.292a2.03426,2.03426,0,0,0,1.69483.98047c1.44287,0,1.94726-1.37305,1.94726-2.62012C82.85205,137.05957,82.4458,135.72949,80.98877,135.72949Z"/><path class="cls-1" d="M88.605,141.83691a2.42188,2.42188,0,0,1-1.84912-.78515v3.39062c0,.21-.126.26563-.30811.26563h-.6167c-.18212,0-.26611-.09766-.26611-.29395v-9.23144c0-.19532.084-.252.26611-.252h.53272c.21,0,.32178.05664.32178.252v.49023a2.857,2.857,0,0,1,2.0874-.89648c1.98877,0,2.87158,1.667,2.87158,3.47461C91.64453,140.11328,90.63574,141.83691,88.605,141.83691Zm-.07031-6.10742a2.35338,2.35338,0,0,0-1.77881.89649v3.292a2.03424,2.03424,0,0,0,1.69482.98047c1.44287,0,1.94727-1.37305,1.94727-2.62012C90.398,137.05957,89.9917,135.72949,88.53467,135.72949Z"/><path class="cls-1" d="M94.27344,135.18262l.01416.47656a1.98183,1.98183,0,0,1,1.61084-.88281,2.41847,2.41847,0,0,1,.40625.042c.126.02832.126.14062.1123.23828l-.09814.63086a.14321.14321,0,0,1-.1543.13965c-.11182,0-.1958-.042-.44824-.042a1.83222,1.83222,0,0,0-1.40039.84082v4.77636c0,.18262-.08447.29395-.2666.29395h-.65821c-.18213,0-.26611-.09766-.26611-.29395v-6.1914c0-.21.09814-.28028.26611-.28028h.60254C94.17578,134.93066,94.27344,135.001,94.27344,135.18262Z"/><path class="cls-1" d="M103.34863,141.51465c0,.13965-.06982.18164-.21.18164h-.58838a.91767.91767,0,0,1-.91064-1.03613h-.02783a2.56806,2.56806,0,0,1-2.10108,1.17675c-1.9331,0-2.7876-1.63964-2.7876-3.40429,0-2.33887,1.38672-3.65625,2.9834-3.65625a2.38329,2.38329,0,0,1,1.877.85449l.01416-.46191c0-.168.11181-.23829.26611-.23829h.63037c.168,0,.25195.084.25195.26661v4.90234a1.53325,1.53325,0,0,0,.07032.63086.2359.2359,0,0,0,.23779.126h.09814c.12647,0,.19629.02734.19629.18164Zm-1.793-4.77637a1.94989,1.94989,0,0,0-1.69482-1.00879c-1.07861,0-1.89111.95215-1.89111,2.61914,0,1.541.71435,2.49317,1.72314,2.49317a2.10068,2.10068,0,0,0,1.86279-1.41407Z"/><path class="cls-1" d="M105.40332,133.9502a.6736.6736,0,1,1,0-1.34473.69457.69457,0,0,1,.72852.67285A.70235.70235,0,0,1,105.40332,133.9502Zm.60254,7.45214c0,.19629-.084.29395-.26611.29395h-.64454a.25574.25574,0,0,1-.28027-.29395v-6.1914a.24585.24585,0,0,1,.28027-.28028h.64454c.18213,0,.26611.084.26611.28028Z"/><path class="cls-1" d="M109.57568,141.83691a4.96661,4.96661,0,0,1-1.91894-.44824.19761.19761,0,0,1-.126-.2666l.18213-.50391a.17868.17868,0,0,1,.23779-.126,4.87652,4.87652,0,0,0,1.667.41992c.8125,0,1.35888-.39258,1.35888-1.05078,0-.5459-.40625-.83985-1.05078-1.09278l-.93848-.36425a1.926,1.926,0,0,1-1.44287-1.76465c0-1.23242,1.12061-1.86328,2.35352-1.86328a4.15759,4.15759,0,0,1,1.8208.39258c.084.042.126.084.126.14062a.42732.42732,0,0,1-.02784.11133l-.15429.49023c-.02783.09864-.084.14063-.15381.14063a.45819.45819,0,0,1-.11231-.02832,4.1875,4.1875,0,0,0-1.4707-.33594c-.74219,0-1.14844.3916-1.14844.86816s.28028.7002.86866.95215l1.09228.46289a1.95838,1.95838,0,0,1,1.40088,1.77832C112.13916,141.03809,111.06055,141.83691,109.57568,141.83691Z"/><path class="cls-1" d="M119.67188,141.51465c0,.13965-.06983.18164-.21.18164h-.58837a.91767.91767,0,0,1-.91065-1.03613h-.02783a2.56806,2.56806,0,0,1-2.10108,1.17675c-1.9331,0-2.78759-1.63964-2.78759-3.40429,0-2.33887,1.38672-3.65625,2.9834-3.65625a2.38327,2.38327,0,0,1,1.87695.85449l.01416-.46191c0-.168.11181-.23829.26611-.23829h.63037c.168,0,.252.084.252.26661v4.90234a1.53349,1.53349,0,0,0,.07031.63086.2359.2359,0,0,0,.23779.126h.09815c.12646,0,.19629.02734.19629.18164Zm-1.793-4.77637a1.94991,1.94991,0,0,0-1.69483-1.00879c-1.07861,0-1.89111.95215-1.89111,2.61914,0,1.541.71435,2.49317,1.72314,2.49317a2.10071,2.10071,0,0,0,1.8628-1.41407Z"/><path class="cls-1" d="M122.20264,141.40234c0,.19629-.084.29395-.252.29395h-.68652c-.168,0-.252-.084-.252-.28027v-9.30079c0-.19628.042-.25195.21-.28027.72851-.09766.74267-.09766.77051-.09766.126,0,.21.05567.21.23829Z"/></svg>