<svg id="Layer_1" data-name="Layer 1" xmlns="http://www.w3.org/2000/svg" viewBox="0 0 300 250"><defs><style>.cls-1{fill:#fff;}</style></defs><path class="cls-1" d="M8.03955,242.93652c0,.07813-.02978.10157-.10156.10157H5.98291c-.07812,0-.12012-.03614-.12012-.13184v-3.874c0-.07813.03614-.126.11426-.126h.32373c.084,0,.12012.03613.12012.126v3.5625H7.92578c.084,0,.11377.02343.11377.0957Z"/><path class="cls-1" d="M8.83887,239.72168a.28813.28813,0,1,1,0-.5752.28855.28855,0,1,1,0,.5752Zm.25781,3.19043c0,.084-.03564.126-.11377.126H8.707a.10964.10964,0,0,1-.12012-.126v-2.65039a.10539.10539,0,0,1,.12012-.12012h.27588c.07813,0,.11377.03613.11377.12012Z"/><path class="cls-1" d="M11.98779,242.9248a1.92241,1.92241,0,0,1-.80957.17383,1.32694,1.32694,0,0,1-1.397-1.50586,1.389,1.389,0,0,1,1.43311-1.5166,1.79636,1.79636,0,0,1,.76757.17383.08053.08053,0,0,1,.06006.07812.15066.15066,0,0,1-.0122.04786l-.04786.1914c-.0122.042-.02978.07227-.06591.07227a.11594.11594,0,0,1-.0542-.01758,1.491,1.491,0,0,0-.62354-.15039c-.56982,0-.92969.42578-.92969,1.09766,0,.61132.26416,1.13964.90577,1.13964a1.65176,1.65176,0,0,0,.67138-.14453.18991.18991,0,0,1,.04834-.01172c.02979,0,.04785.01758.05957.05957l.0542.168a.32214.32214,0,0,1,.01221.06641C12.06006,242.88281,12.042,242.90039,11.98779,242.9248Z"/><path class="cls-1" d="M14.9458,241.49707c0,.1377-.02392.168-.17969.168H12.9248a.93789.93789,0,0,0,.94776,1.01367,2.12481,2.12481,0,0,0,.71924-.126c.0542-.01855.11425-.03027.13232.042l.06592.22168c.01807.05371-.01221.07812-.06592.10839a2.43606,2.43606,0,0,1-.91748.17383,1.348,1.348,0,0,1-1.41553-1.51172,1.38854,1.38854,0,0,1,1.39746-1.51074,1.10384,1.10384,0,0,1,.81543.33008,1.38282,1.38282,0,0,1,.3418.98926Zm-.50391-.17969v-.084a.68082.68082,0,0,0-.67724-.76172.85647.85647,0,0,0-.82764.8457Z"/><path class="cls-1" d="M17.98193,242.91211c0,.084-.02978.126-.11377.126h-.28222c-.07764,0-.11377-.042-.11377-.126V241.2334c0-.42578-.10791-.73145-.5874-.73145a1.3618,1.3618,0,0,0-.82764.34766v2.0625c0,.084-.03613.126-.11426.126h-.28174a.106.106,0,0,1-.11377-.12012v-2.65625c0-.084.02979-.12012.11377-.12012h.26416c.07178,0,.11377.03028.11377.1084l.00586.18555a1.54406,1.54406,0,0,1,.9834-.35938c.68994,0,.95361.41992.95361,1.07324Z"/><path class="cls-1" d="M19.45264,243.09863a2.12531,2.12531,0,0,1-.82129-.19238.08416.08416,0,0,1-.0542-.11426l.07812-.21582a.077.077,0,0,1,.102-.05371,2.0863,2.0863,0,0,0,.71338.17969c.34766,0,.58155-.168.58155-.44922,0-.23438-.17383-.36035-.44971-.46777l-.40137-.15625a.82474.82474,0,0,1-.61767-.75586c0-.52735.47949-.79688,1.00732-.79688a1.7758,1.7758,0,0,1,.7793.168c.03613.01758.0542.03613.0542.05957a.17162.17162,0,0,1-.01221.04785l-.06592.21c-.01172.042-.03564.06055-.06592.06055a.20092.20092,0,0,1-.04785-.01269,1.80789,1.80789,0,0,0-.62988-.14356c-.31787,0-.4917.168-.4917.37207,0,.20313.12012.29981.37207.40723l.46777.19824a.83885.83885,0,0,1,.59961.76172C20.55029,242.75684,20.08838,243.09863,19.45264,243.09863Z"/><path class="cls-1" d="M23.52,241.49707c0,.1377-.02393.168-.17969.168H21.499a.93789.93789,0,0,0,.94776,1.01367,2.12481,2.12481,0,0,0,.71924-.126c.05419-.01855.11425-.03027.13232.042l.06592.22168c.01806.05371-.01221.07812-.06592.10839a2.43606,2.43606,0,0,1-.91748.17383,1.348,1.348,0,0,1-1.41553-1.51172,1.38854,1.38854,0,0,1,1.39746-1.51074,1.10384,1.10384,0,0,1,.81543.33008,1.38282,1.38282,0,0,1,.3418.98926Zm-.50391-.17969v-.084a.68082.68082,0,0,0-.67724-.76172.85647.85647,0,0,0-.82764.8457Z"/><path class="cls-1" d="M26.55615,242.91211c0,.07812-.03613.126-.08984.126H26.2085c-.09034,0-.126-.03614-.126-.11329l-.00586-.21582a1.20206,1.20206,0,0,1-.88184.38965c-.86328,0-1.23535-.708-1.23535-1.49316a1.37147,1.37147,0,0,1,1.30762-1.53516,1.073,1.073,0,0,1,.7793.33594v-1.46387c0-.07812.01806-.11328.09619-.126.30566-.042.31152-.042.32373-.042.06006,0,.08984.03028.08984.10254Zm-.50976-2.01465a.85415.85415,0,0,0-.70752-.41992c-.53955,0-.85157.44434-.85157,1.10351,0,.63575.28174,1.10938.80372,1.10938a1.00748,1.00748,0,0,0,.75537-.39551Z"/><path class="cls-1" d="M29.93506,241.35938h-.57568v1.55273c0,.07812-.03614.126-.11426.126h-.32959c-.07813,0-.11426-.042-.11426-.126v-3.874c0-.09571.03027-.13184.12012-.13184h.86377a1.572,1.572,0,0,1,1.26513.43164,1.20415,1.20415,0,0,1,.24561.78027,1.19023,1.19023,0,0,1-.83936,1.14551l.00586.01172.97754,1.63672c.03613.05469.02393.126-.06006.126H31.02a.18447.18447,0,0,1-.18555-.10743Zm-.1919-2.02735h-.38378v1.60742h.46142a.80575.80575,0,0,0,.91162-.81543C30.73242,239.53613,30.36035,239.332,29.74316,239.332Z"/><path class="cls-1" d="M34.47021,242.93066c0,.07129-.02978.10743-.12011.10743H32.25732c-.102,0-.126-.02344-.126-.126v-3.88574c0-.084.03027-.12012.11426-.12012h2.11084c.08984,0,.10156.042.0957.11426l-.02393.22754c-.00586.084-.06006.09668-.16162.09668H32.68945v1.3125h1.40918c.084,0,.11963.03613.11963.10839v.21583c0,.084-.02978.10839-.11377.10839h-1.415v1.51075h1.65479c.08984,0,.126.03027.126.10156Z"/><path class="cls-1" d="M37.7041,242.93066l-.39551-1.11523H35.75537l-.41406,1.12109c-.02979.07813-.05371.10157-.1377.10157h-.354c-.084,0-.07178-.06543-.05371-.12012l1.50488-3.92774a.11566.11566,0,0,1,.10791-.084h.31787a.10473.10473,0,0,1,.10791.07227l1.48145,3.93359c.02392.06641.02392.126-.07813.126h-.37158C37.76416,243.03809,37.73438,243.02051,37.7041,242.93066Zm-.53955-1.52929-.48-1.373c-.07178-.21-.11377-.3418-.13769-.42578H36.541c-.03028.0957-.07227.21582-.14991.4375l-.4917,1.36133Z"/><path class="cls-1" d="M41.35205,242.93066l-.39551-1.11523H39.40332l-.41406,1.12109c-.02979.07813-.05371.10157-.1377.10157h-.354c-.084,0-.07178-.06543-.05371-.12012l1.50488-3.92774a.11566.11566,0,0,1,.10791-.084h.31787a.10473.10473,0,0,1,.10791.07227l1.48145,3.93359c.02392.06641.02392.126-.07813.126h-.37158C41.41211,243.03809,41.38232,243.02051,41.35205,242.93066Zm-.53955-1.52929-.48-1.373c-.07178-.21-.11377-.3418-.1377-.42578H40.189c-.03027.0957-.07226.21582-.1499.4375l-.4917,1.36133Z"/><path class="cls-1" d="M46.3623,242.90625c0,.084-.03613.13184-.144.13184H43.95752c-.10205,0-.13184-.03614-.13184-.13184V242.709a.20749.20749,0,0,1,.07178-.18066c.31787-.33594.67774-.665.9834-.99512a2.59584,2.59584,0,0,0,.90576-1.54687.657.657,0,0,0-.71973-.67774,1.7472,1.7472,0,0,0-.85742.252.13618.13618,0,0,1-.06006.01757c-.03613,0-.06005-.02343-.084-.07226l-.08984-.19141a.15463.15463,0,0,1-.01807-.0664c0-.03516.02393-.06543.06592-.09571A2.13642,2.13642,0,0,1,45.145,238.835a1.10046,1.10046,0,0,1,1.21728,1.09668c0,.624-.37792,1.14551-1.11523,1.91309-.24023.25195-.49219.498-.72607.73144h1.69726c.102,0,.144.03028.144.12012Z"/><path class="cls-1" d="M48.3667,243.09863c-1.08545,0-1.415-1.16992-1.415-2.123,0-.94727.35986-2.14063,1.43311-2.14063,1.08544,0,1.40918,1.16895,1.40918,2.12207C49.794,241.91113,49.45215,243.09863,48.3667,243.09863Zm.01221-3.7959c-.6836,0-.84571.959-.84571,1.66114,0,.707.15576,1.66113.83936,1.66113s.83984-.96.83984-1.66113C49.2124,240.25,49.04443,239.30273,48.37891,239.30273Z"/><path class="cls-1" d="M51.6665,243.09863c-1.08545,0-1.415-1.16992-1.415-2.123,0-.94727.35987-2.14063,1.43311-2.14063,1.08545,0,1.40918,1.16895,1.40918,2.12207C53.09375,241.91113,52.752,243.09863,51.6665,243.09863Zm.01221-3.7959c-.68359,0-.8457.959-.8457,1.66114,0,.707.15576,1.66113.83935,1.66113s.83985-.96.83985-1.66113C52.51221,240.25,52.34424,239.30273,51.67871,239.30273Z"/><path class="cls-1" d="M54.96045,243.09863a1.2011,1.2011,0,0,1-1.36133-1.17578.99022.99022,0,0,1,.17969-.5459,1.53228,1.53228,0,0,1,.71387-.53906,1.03357,1.03357,0,0,1,.4917-2.00293,1.04831,1.04831,0,0,1,1.16943,1.0127,1.17775,1.17775,0,0,1-.71973.94824c.60547.252.90528.62305.90528,1.06738A1.27425,1.27425,0,0,1,54.96045,243.09863Zm.59961-1.68554a1.93314,1.93314,0,0,0-.63574-.38379c-.40186.168-.75537.4375-.75537.87011a.781.781,0,0,0,.80957.78516.74946.74946,0,0,0,.7915-.77344A.65729.65729,0,0,0,55.56006,241.41309Zm-.59961-2.165a.58971.58971,0,0,0-.61768.59375c0,.38379.29981.59961.64161.76758a.93834.93834,0,0,0,.5996-.75489A.57209.57209,0,0,0,54.96045,239.24805Z"/></svg>